<svg width="722" height="300" viewBox="0 0 722 300" fill="none" xmlns="http://www.w3.org/2000/svg">
<g clip-path="url(#clip0_48_15)">
<path d="M8.96387 23.5503H713.141V300H8.96387V23.5503Z" fill="#A6BEAE"/>
<path d="M33.0718 59.1299H77.1264V145.52H33.0718V59.1299Z" fill="#EBEADB"/>
<path d="M37.2742 67.3701H72.9244V137.28H37.2742V67.3701Z" fill="#181E1E"/>
<path d="M37.2742 87.8799H72.9244V92.1741H37.2742V87.8799Z" fill="#EBEADB"/>
<path d="M33.0718 150.115H77.1264V211.466H33.0718V150.115Z" fill="#EBEADB"/>
<path d="M37.2742 170.532H72.9244V173.582H37.2742V170.532Z" fill="#EBEADB"/>
<path d="M103.237 59.1299H147.291V145.52H103.237V59.1299Z" fill="#EBEADB"/>
<path d="M107.439 67.3701H143.089V137.28H107.439V67.3701Z" fill="#181E1E"/>
<path d="M107.439 87.8799H143.089V92.1741H107.439V87.8799Z" fill="#EBEADB"/>
<path d="M173.401 59.1299H217.455V145.52H173.401V59.1299Z" fill="#EBEADB"/>
<path d="M177.603 67.3701H213.253V137.28H177.603V67.3701Z" fill="#181E1E"/>
<path d="M177.603 87.8799H213.253V92.1741H177.603V87.8799Z" fill="#EBEADB"/>
<path d="M268.968 59.1299H313.023V145.52H268.968V59.1299Z" fill="#EBEADB"/>
<path d="M273.17 67.3701H308.821V137.28H273.17V67.3701Z" fill="#181E1E"/>
<path d="M273.17 87.8799H308.821V92.1741H273.17V87.8799Z" fill="#EBEADB"/>
<path d="M339.132 59.1299H383.187V145.52H339.132V59.1299Z" fill="#EBEADB"/>
<path d="M343.334 67.3701H378.984V137.28H343.334V67.3701Z" fill="#181E1E"/>
<path d="M343.334 87.8799H378.984V92.1741H343.334V87.8799Z" fill="#EBEADB"/>
<path d="M409.297 59.1299H453.351V145.52H409.297V59.1299Z" fill="#EBEADB"/>
<path d="M413.499 67.3701H449.149V137.28H413.499V67.3701Z" fill="#181E1E"/>
<path d="M413.499 87.8799H449.149V92.1741H413.499V87.8799Z" fill="#EBEADB"/>
<path d="M504.575 59.1299H548.629V145.52H504.575V59.1299Z" fill="#EBEADB"/>
<path d="M508.777 67.3701H544.427V137.28H508.777V67.3701Z" fill="#181E1E"/>
<path d="M508.777 87.8799H544.427V92.1741H508.777V87.8799Z" fill="#EBEADB"/>
<path d="M574.739 59.1299H618.794V145.52H574.739V59.1299Z" fill="#EBEADB"/>
<path d="M578.941 67.3701H614.591V137.28H578.941V67.3701Z" fill="#181E1E"/>
<path d="M578.941 87.8799H614.591V92.1741H578.941V87.8799Z" fill="#EBEADB"/>
<path d="M644.903 59.1299H688.958V145.52H644.903V59.1299Z" fill="#EBEADB"/>
<path d="M649.105 67.3701H684.756V137.28H649.105V67.3701Z" fill="#181E1E"/>
<path d="M649.105 87.8799H684.756V92.1741H649.105V87.8799Z" fill="#EBEADB"/>
<path d="M37.2742 155.012H47.8229V165.488H37.2742V155.012Z" fill="#A6BEAE"/>
<path d="M50.3069 155.012H54.0986V180.791H50.3069V155.012Z" fill="#A6BEAE"/>
<path d="M56.1003 155.012H59.892V180.791H56.1003V155.012Z" fill="#A6BEAE"/>
<path d="M37.2742 170.315H47.8229V180.791H37.2742V170.315Z" fill="#A6BEAE"/>
<path d="M62.3757 155.012H72.9245V165.488H62.3757V155.012Z" fill="#A6BEAE"/>
<path d="M77.1265 155.986H103.236V164.513H77.1265V155.986Z" fill="#EBEADB"/>
<path d="M77.1265 171.289H103.236V179.817H77.1265V171.289Z" fill="#EBEADB"/>
<path d="M147.291 155.986H173.401V164.513H147.291V155.986Z" fill="#EBEADB"/>
<path d="M147.291 171.289H173.401V179.817H147.291V171.289Z" fill="#EBEADB"/>
<path d="M313.022 155.986H339.132V164.513H313.022V155.986Z" fill="#EBEADB"/>
<path d="M313.022 171.289H339.132V179.817H313.022V171.289Z" fill="#EBEADB"/>
<path d="M383.187 155.986H409.297V164.513H383.187V155.986Z" fill="#EBEADB"/>
<path d="M383.187 171.289H409.297V179.817H383.187V171.289Z" fill="#EBEADB"/>
<path d="M548.63 155.986H574.74V164.513H548.63V155.986Z" fill="#EBEADB"/>
<path d="M548.63 171.289H574.74V179.817H548.63V171.289Z" fill="#EBEADB"/>
<path d="M618.794 155.986H644.904V164.513H618.794V155.986Z" fill="#EBEADB"/>
<path d="M618.794 171.289H644.904V179.817H618.794V171.289Z" fill="#EBEADB"/>
<path d="M62.3757 170.315H72.9245V180.791H62.3757V170.315Z" fill="#A6BEAE"/>
<path d="M103.237 150.115H147.291V211.466H103.237V150.115Z" fill="#EBEADB"/>
<path d="M107.439 170.532H143.089V173.582H107.439V170.532Z" fill="#EBEADB"/>
<path d="M107.439 155.012H117.987V165.488H107.439V155.012Z" fill="#A6BEAE"/>
<path d="M120.471 155.012H124.263V180.791H120.471V155.012Z" fill="#A6BEAE"/>
<path d="M126.265 155.012H130.057V180.791H126.265V155.012Z" fill="#A6BEAE"/>
<path d="M107.439 170.315H117.987V180.791H107.439V170.315Z" fill="#A6BEAE"/>
<path d="M132.54 155.012H143.089V165.488H132.54V155.012Z" fill="#A6BEAE"/>
<path d="M132.54 170.315H143.089V180.791H132.54V170.315Z" fill="#A6BEAE"/>
<path d="M173.401 150.115H217.455V211.466H173.401V150.115Z" fill="#EBEADB"/>
<path d="M177.603 170.532H213.253V173.582H177.603V170.532Z" fill="#EBEADB"/>
<path d="M231.56 23.5503H254.863V300H231.56V23.5503Z" fill="#EBEADB"/>
<path d="M233.782 115.551H252.64V129.292H233.782V115.551Z" fill="#EBEADB"/>
<path d="M467.311 23.5503H490.615V300H467.311V23.5503Z" fill="#EBEADB"/>
<path d="M469.534 115.551H488.392V129.292H469.534V115.551Z" fill="#EBEADB"/>
<path d="M177.603 155.012H188.152V165.488H177.603V155.012Z" fill="#A6BEAE"/>
<path d="M190.636 155.012H194.427V180.791H190.636V155.012Z" fill="#A6BEAE"/>
<path d="M196.429 155.012H200.221V180.791H196.429V155.012Z" fill="#A6BEAE"/>
<path d="M177.603 170.315H188.152V180.791H177.603V170.315Z" fill="#A6BEAE"/>
<path d="M202.705 155.012H213.254V165.488H202.705V155.012Z" fill="#A6BEAE"/>
<path d="M202.705 170.315H213.254V180.791H202.705V170.315Z" fill="#A6BEAE"/>
<path d="M268.968 150.115H313.023V211.466H268.968V150.115Z" fill="#EBEADB"/>
<path d="M273.17 170.532H308.821V173.582H273.17V170.532Z" fill="#EBEADB"/>
<g filter="url(#filter0_d_48_15)">
<path d="M268.968 252.49H313.023V260.889H268.968V252.49Z" fill="#EBEADB"/>
</g>
<path d="M273.17 155.012H283.719V165.488H273.17V155.012Z" fill="#A6BEAE"/>
<path d="M286.203 155.012H289.994V180.791H286.203V155.012Z" fill="#A6BEAE"/>
<path d="M291.996 155.012H295.788V180.791H291.996V155.012Z" fill="#A6BEAE"/>
<path d="M273.17 170.315H283.719V180.791H273.17V170.315Z" fill="#A6BEAE"/>
<path d="M298.272 155.012H308.82V165.488H298.272V155.012Z" fill="#A6BEAE"/>
<path d="M298.272 170.315H308.82V180.791H298.272V170.315Z" fill="#A6BEAE"/>
<path d="M339.132 150.115H383.187V211.466H339.132V150.115Z" fill="#EBEADB"/>
<path d="M343.334 170.532H378.984V173.582H343.334V170.532Z" fill="#EBEADB"/>
<path d="M343.335 155.012H353.883V165.488H343.335V155.012Z" fill="#A6BEAE"/>
<path d="M356.367 155.012H360.159V180.791H356.367V155.012Z" fill="#A6BEAE"/>
<path d="M362.161 155.012H365.952V180.791H362.161V155.012Z" fill="#A6BEAE"/>
<path d="M343.335 170.315H353.883V180.791H343.335V170.315Z" fill="#A6BEAE"/>
<path d="M368.436 155.012H378.985V165.488H368.436V155.012Z" fill="#A6BEAE"/>
<path d="M368.436 170.315H378.985V180.791H368.436V170.315Z" fill="#A6BEAE"/>
<path d="M409.297 150.115H453.351V211.466H409.297V150.115Z" fill="#EBEADB"/>
<path d="M413.499 170.532H449.149V173.581H413.499V170.532Z" fill="#EBEADB"/>
<path d="M413.499 155.012H424.048V165.488H413.499V155.012Z" fill="#A6BEAE"/>
<path d="M426.532 155.012H430.324V180.791H426.532V155.012Z" fill="#A6BEAE"/>
<path d="M432.325 155.012H436.117V180.791H432.325V155.012Z" fill="#A6BEAE"/>
<path d="M413.499 170.315H424.048V180.791H413.499V170.315Z" fill="#A6BEAE"/>
<path d="M438.601 155.012H449.149V165.488H438.601V155.012Z" fill="#A6BEAE"/>
<path d="M438.601 170.315H449.149V180.791H438.601V170.315Z" fill="#A6BEAE"/>
<path d="M504.575 150.115H548.629V211.466H504.575V150.115Z" fill="#EBEADB"/>
<path d="M508.777 170.532H544.427V173.582H508.777V170.532Z" fill="#EBEADB"/>
<path d="M508.777 155.012H519.326V165.488H508.777V155.012Z" fill="#A6BEAE"/>
<path d="M521.81 155.012H525.601V180.791H521.81V155.012Z" fill="#A6BEAE"/>
<path d="M527.603 155.012H531.394V180.791H527.603V155.012Z" fill="#A6BEAE"/>
<path d="M508.777 170.315H519.326V180.791H508.777V170.315Z" fill="#A6BEAE"/>
<path d="M533.878 155.012H544.427V165.488H533.878V155.012Z" fill="#A6BEAE"/>
<path d="M533.878 170.315H544.427V180.791H533.878V170.315Z" fill="#A6BEAE"/>
<path d="M574.739 150.115H618.794V211.466H574.739V150.115Z" fill="#EBEADB"/>
<path d="M578.941 170.532H614.591V173.581H578.941V170.532Z" fill="#EBEADB"/>
<path d="M578.941 155.012H589.49V165.488H578.941V155.012Z" fill="#A6BEAE"/>
<path d="M591.974 155.012H595.766V180.791H591.974V155.012Z" fill="#A6BEAE"/>
<path d="M597.768 155.012H601.559V180.791H597.768V155.012Z" fill="#A6BEAE"/>
<path d="M578.941 170.315H589.49V180.791H578.941V170.315Z" fill="#A6BEAE"/>
<path d="M604.043 155.012H614.592V165.488H604.043V155.012Z" fill="#A6BEAE"/>
<path d="M604.043 170.315H614.592V180.791H604.043V170.315Z" fill="#A6BEAE"/>
<path d="M644.903 150.115H688.958V211.466H644.903V150.115Z" fill="#EBEADB"/>
<path d="M649.105 170.532H684.756V173.582H649.105V170.532Z" fill="#EBEADB"/>
<path d="M649.105 155.012H659.654V165.488H649.105V155.012Z" fill="#A6BEAE"/>
<path d="M662.138 155.012H665.93V180.791H662.138V155.012Z" fill="#A6BEAE"/>
<path d="M667.931 155.012H671.723V180.791H667.931V155.012Z" fill="#A6BEAE"/>
<path d="M649.105 170.315H659.654V180.791H649.105V170.315Z" fill="#A6BEAE"/>
<path d="M674.208 155.012H684.757V165.488H674.208V155.012Z" fill="#A6BEAE"/>
<path d="M674.208 170.315H684.757V180.791H674.208V170.315Z" fill="#A6BEAE"/>
<path d="M713.141 281.76L713.141 300L8.96338 300L8.96338 281.76L713.141 281.76Z" fill="#495C50"/>
<path d="M478.796 283.5L478.796 298.26L443.793 298.26L443.793 283.5L478.796 283.5Z" fill="#495C50"/>
<path d="M722.318 0L722.318 32.6703L-6.24632e-05 32.6703L-6.10352e-05 -3.15735e-05L722.318 0Z" fill="#495C50"/>
<path d="M481.936 3.11621L481.936 29.5539L446.032 29.5539L446.032 3.11621L481.936 3.11621Z" fill="#495C50"/>
<path d="M722.318 7.8999L722.318 32.6703L-6.21254e-05 32.6703L-6.10352e-05 7.89987L722.318 7.8999Z" fill="#EBEADB"/>
<path d="M481.936 10.2627L481.936 30.3076L446.032 30.3076L446.032 10.2627L481.936 10.2627Z" fill="#EBEADB"/>
<path d="M33.0718 200.6H217.455V300H33.0718V200.6Z" fill="#EBEADB"/>
<path d="M50.6597 233.679H199.868V238.62H50.6597V233.679Z" fill="#EBEADB"/>
<path d="M40.4119 188.302H69.7868V258.211H40.4119V188.302Z" fill="#412D15"/>
<path d="M180.741 188.302H210.116V258.211H180.741V188.302Z" fill="#412D15"/>
<g filter="url(#filter1_d_48_15)">
<path d="M33.0718 295.585H217.455V300H33.0718V295.585Z" fill="#747474"/>
<path d="M50.6597 297.055H199.868V297.274H50.6597V297.055Z" fill="#747474"/>
</g>
<g filter="url(#filter2_d_48_15)">
<path d="M33.0718 291.171H217.455V295.586H33.0718V291.171Z" fill="#747474"/>
<path d="M50.6597 292.64H199.868V292.86H50.6597V292.64Z" fill="#747474"/>
</g>
<g filter="url(#filter3_d_48_15)">
<path d="M33.0718 286.756H217.455V291.17H33.0718V286.756Z" fill="#747474"/>
<path d="M50.6597 288.225H199.868V288.445H50.6597V288.225Z" fill="#747474"/>
</g>
<g filter="url(#filter4_d_48_15)">
<path d="M33.0718 282.341H217.455V286.756H33.0718V282.341Z" fill="#747474"/>
<path d="M50.6597 283.811H199.868V284.03H50.6597V283.811Z" fill="#747474"/>
</g>
<g filter="url(#filter5_d_48_15)">
<path d="M33.0718 277.927H217.455V282.341H33.0718V277.927Z" fill="#747474"/>
<path d="M50.6597 279.396H199.868V279.615H50.6597V279.396Z" fill="#747474"/>
</g>
<g filter="url(#filter6_d_48_15)">
<path d="M33.0718 273.512H217.455V277.927H33.0718V273.512Z" fill="#747474"/>
<path d="M50.6597 274.981H199.868V275.201H50.6597V274.981Z" fill="#747474"/>
</g>
<g filter="url(#filter7_d_48_15)">
<path d="M33.0718 258.211H217.455V273.512H33.0718V258.211Z" fill="#747474"/>
<path d="M50.6597 263.303H199.868V264.064H50.6597V263.303Z" fill="#747474"/>
</g>
<g filter="url(#filter8_i_48_15)">
<path d="M217.456 214.678H221.835V293.378H217.456V214.678Z" fill="#EBEADB"/>
</g>
<g filter="url(#filter9_i_48_15)">
<path fill-rule="evenodd" clip-rule="evenodd" d="M221.146 215.366H218.144V292.69H221.146V215.366ZM217.456 214.678V293.378H221.835V214.678H217.456Z" fill="black"/>
</g>
<g filter="url(#filter10_i_48_15)">
<path d="M30.8821 214.678H35.2617V293.378H30.8821V214.678Z" fill="#EBEADB"/>
</g>
<g filter="url(#filter11_i_48_15)">
<path fill-rule="evenodd" clip-rule="evenodd" d="M34.5729 215.366H31.5708V292.69H34.5729V215.366ZM30.8821 214.678V293.378H35.2617V214.678H30.8821Z" fill="black"/>
</g>
<g filter="url(#filter12_i_48_15)">
<path d="M107.439 212.47H109.053V291.171H107.439V212.47Z" fill="#434343"/>
</g>
<g filter="url(#filter13_i_48_15)">
<path d="M141.474 212.47H143.089V291.171H141.474V212.47Z" fill="#434343"/>
</g>
<path d="M273.17 188.302H308.82V258.211H273.17V188.302Z" fill="#181E1E"/>
<g filter="url(#filter14_d_48_15)">
<path d="M272.003 260.889H309.988V266.054H272.003V260.889Z" fill="#A6BEAE"/>
</g>
<g filter="url(#filter15_d_48_15)">
<path d="M273.17 266.054H308.821V270.685H273.17V266.054Z" fill="#EBEADB"/>
</g>
<g filter="url(#filter16_d_48_15)">
<path d="M339.025 252.49H383.08V260.889H339.025V252.49Z" fill="#EBEADB"/>
</g>
<g filter="url(#filter17_d_48_15)">
<path d="M342.06 260.889H380.045V266.054H342.06V260.889Z" fill="#A6BEAE"/>
</g>
<g filter="url(#filter18_d_48_15)">
<path d="M343.228 266.054H378.878V270.685H343.228V266.054Z" fill="#EBEADB"/>
</g>
<g filter="url(#filter19_d_48_15)">
<path d="M409.297 252.49H453.352V260.889H409.297V252.49Z" fill="#EBEADB"/>
</g>
<g filter="url(#filter20_d_48_15)">
<path d="M412.332 260.889H450.317V266.054H412.332V260.889Z" fill="#A6BEAE"/>
</g>
<g filter="url(#filter21_d_48_15)">
<path d="M413.499 266.054H449.149V270.685H413.499V266.054Z" fill="#EBEADB"/>
</g>
<g filter="url(#filter22_d_48_15)">
<path d="M504.575 252.49H548.629V260.889H504.575V252.49Z" fill="#EBEADB"/>
</g>
<g filter="url(#filter23_d_48_15)">
<path d="M507.609 260.889H545.594V266.054H507.609V260.889Z" fill="#A6BEAE"/>
</g>
<g filter="url(#filter24_d_48_15)">
<path d="M508.777 266.054H544.427V270.685H508.777V266.054Z" fill="#EBEADB"/>
</g>
<g filter="url(#filter25_d_48_15)">
<path d="M574.739 252.49H618.793V260.889H574.739V252.49Z" fill="#EBEADB"/>
</g>
<g filter="url(#filter26_d_48_15)">
<path d="M577.773 260.889H615.758V266.054H577.773V260.889Z" fill="#A6BEAE"/>
</g>
<g filter="url(#filter27_d_48_15)">
<path d="M578.941 266.054H614.591V270.685H578.941V266.054Z" fill="#EBEADB"/>
</g>
<g filter="url(#filter28_d_48_15)">
<path d="M645.905 252.49H689.959V260.889H645.905V252.49Z" fill="#EBEADB"/>
</g>
<g filter="url(#filter29_d_48_15)">
<path d="M648.939 260.889H686.924V266.054H648.939V260.889Z" fill="#A6BEAE"/>
</g>
<g filter="url(#filter30_d_48_15)">
<path d="M650.106 266.054H685.757V270.685H650.106V266.054Z" fill="#EBEADB"/>
</g>
<path d="M343.335 188.302H378.985V258.211H343.335V188.302Z" fill="#181E1E"/>
<path d="M413.499 188.302H449.149V258.211H413.499V188.302Z" fill="#181E1E"/>
<path d="M508.777 188.302H544.427V258.211H508.777V188.302Z" fill="#181E1E"/>
<path d="M578.941 188.302H614.592V258.211H578.941V188.302Z" fill="#181E1E"/>
<path d="M649.105 188.302H684.755V258.211H649.105V188.302Z" fill="#181E1E"/>
</g>
<defs>
<filter id="filter0_d_48_15" x="266.213" y="252.49" width="49.5646" height="13.9093" filterUnits="userSpaceOnUse" color-interpolation-filters="sRGB">
<feFlood flood-opacity="0" result="BackgroundImageFix"/>
<feColorMatrix in="SourceAlpha" type="matrix" values="0 0 0 0 0 0 0 0 0 0 0 0 0 0 0 0 0 0 127 0" result="hardAlpha"/>
<feOffset dy="2.75494"/>
<feGaussianBlur stdDeviation="1.37747"/>
<feComposite in2="hardAlpha" operator="out"/>
<feColorMatrix type="matrix" values="0 0 0 0 0 0 0 0 0 0 0 0 0 0 0 0 0 0 0.25 0"/>
<feBlend mode="normal" in2="BackgroundImageFix" result="effect1_dropShadow_48_15"/>
<feBlend mode="normal" in="SourceGraphic" in2="effect1_dropShadow_48_15" result="shape"/>
</filter>
<filter id="filter1_d_48_15" x="30.3168" y="295.585" width="189.893" height="9.92443" filterUnits="userSpaceOnUse" color-interpolation-filters="sRGB">
<feFlood flood-opacity="0" result="BackgroundImageFix"/>
<feColorMatrix in="SourceAlpha" type="matrix" values="0 0 0 0 0 0 0 0 0 0 0 0 0 0 0 0 0 0 127 0" result="hardAlpha"/>
<feOffset dy="2.75494"/>
<feGaussianBlur stdDeviation="1.37747"/>
<feComposite in2="hardAlpha" operator="out"/>
<feColorMatrix type="matrix" values="0 0 0 0 0 0 0 0 0 0 0 0 0 0 0 0 0 0 0.25 0"/>
<feBlend mode="normal" in2="BackgroundImageFix" result="effect1_dropShadow_48_15"/>
<feBlend mode="normal" in="SourceGraphic" in2="effect1_dropShadow_48_15" result="shape"/>
</filter>
<filter id="filter2_d_48_15" x="30.3168" y="291.171" width="189.893" height="9.92443" filterUnits="userSpaceOnUse" color-interpolation-filters="sRGB">
<feFlood flood-opacity="0" result="BackgroundImageFix"/>
<feColorMatrix in="SourceAlpha" type="matrix" values="0 0 0 0 0 0 0 0 0 0 0 0 0 0 0 0 0 0 127 0" result="hardAlpha"/>
<feOffset dy="2.75494"/>
<feGaussianBlur stdDeviation="1.37747"/>
<feComposite in2="hardAlpha" operator="out"/>
<feColorMatrix type="matrix" values="0 0 0 0 0 0 0 0 0 0 0 0 0 0 0 0 0 0 0.25 0"/>
<feBlend mode="normal" in2="BackgroundImageFix" result="effect1_dropShadow_48_15"/>
<feBlend mode="normal" in="SourceGraphic" in2="effect1_dropShadow_48_15" result="shape"/>
</filter>
<filter id="filter3_d_48_15" x="30.3168" y="286.756" width="189.893" height="9.92443" filterUnits="userSpaceOnUse" color-interpolation-filters="sRGB">
<feFlood flood-opacity="0" result="BackgroundImageFix"/>
<feColorMatrix in="SourceAlpha" type="matrix" values="0 0 0 0 0 0 0 0 0 0 0 0 0 0 0 0 0 0 127 0" result="hardAlpha"/>
<feOffset dy="2.75494"/>
<feGaussianBlur stdDeviation="1.37747"/>
<feComposite in2="hardAlpha" operator="out"/>
<feColorMatrix type="matrix" values="0 0 0 0 0 0 0 0 0 0 0 0 0 0 0 0 0 0 0.25 0"/>
<feBlend mode="normal" in2="BackgroundImageFix" result="effect1_dropShadow_48_15"/>
<feBlend mode="normal" in="SourceGraphic" in2="effect1_dropShadow_48_15" result="shape"/>
</filter>
<filter id="filter4_d_48_15" x="30.3168" y="282.341" width="189.893" height="9.92443" filterUnits="userSpaceOnUse" color-interpolation-filters="sRGB">
<feFlood flood-opacity="0" result="BackgroundImageFix"/>
<feColorMatrix in="SourceAlpha" type="matrix" values="0 0 0 0 0 0 0 0 0 0 0 0 0 0 0 0 0 0 127 0" result="hardAlpha"/>
<feOffset dy="2.75494"/>
<feGaussianBlur stdDeviation="1.37747"/>
<feComposite in2="hardAlpha" operator="out"/>
<feColorMatrix type="matrix" values="0 0 0 0 0 0 0 0 0 0 0 0 0 0 0 0 0 0 0.25 0"/>
<feBlend mode="normal" in2="BackgroundImageFix" result="effect1_dropShadow_48_15"/>
<feBlend mode="normal" in="SourceGraphic" in2="effect1_dropShadow_48_15" result="shape"/>
</filter>
<filter id="filter5_d_48_15" x="30.3168" y="277.927" width="189.893" height="9.92443" filterUnits="userSpaceOnUse" color-interpolation-filters="sRGB">
<feFlood flood-opacity="0" result="BackgroundImageFix"/>
<feColorMatrix in="SourceAlpha" type="matrix" values="0 0 0 0 0 0 0 0 0 0 0 0 0 0 0 0 0 0 127 0" result="hardAlpha"/>
<feOffset dy="2.75494"/>
<feGaussianBlur stdDeviation="1.37747"/>
<feComposite in2="hardAlpha" operator="out"/>
<feColorMatrix type="matrix" values="0 0 0 0 0 0 0 0 0 0 0 0 0 0 0 0 0 0 0.25 0"/>
<feBlend mode="normal" in2="BackgroundImageFix" result="effect1_dropShadow_48_15"/>
<feBlend mode="normal" in="SourceGraphic" in2="effect1_dropShadow_48_15" result="shape"/>
</filter>
<filter id="filter6_d_48_15" x="30.3168" y="273.512" width="189.893" height="9.92443" filterUnits="userSpaceOnUse" color-interpolation-filters="sRGB">
<feFlood flood-opacity="0" result="BackgroundImageFix"/>
<feColorMatrix in="SourceAlpha" type="matrix" values="0 0 0 0 0 0 0 0 0 0 0 0 0 0 0 0 0 0 127 0" result="hardAlpha"/>
<feOffset dy="2.75494"/>
<feGaussianBlur stdDeviation="1.37747"/>
<feComposite in2="hardAlpha" operator="out"/>
<feColorMatrix type="matrix" values="0 0 0 0 0 0 0 0 0 0 0 0 0 0 0 0 0 0 0.25 0"/>
<feBlend mode="normal" in2="BackgroundImageFix" result="effect1_dropShadow_48_15"/>
<feBlend mode="normal" in="SourceGraphic" in2="effect1_dropShadow_48_15" result="shape"/>
</filter>
<filter id="filter7_d_48_15" x="30.3168" y="258.211" width="189.893" height="20.8111" filterUnits="userSpaceOnUse" color-interpolation-filters="sRGB">
<feFlood flood-opacity="0" result="BackgroundImageFix"/>
<feColorMatrix in="SourceAlpha" type="matrix" values="0 0 0 0 0 0 0 0 0 0 0 0 0 0 0 0 0 0 127 0" result="hardAlpha"/>
<feOffset dy="2.75494"/>
<feGaussianBlur stdDeviation="1.37747"/>
<feComposite in2="hardAlpha" operator="out"/>
<feColorMatrix type="matrix" values="0 0 0 0 0 0 0 0 0 0 0 0 0 0 0 0 0 0 0.25 0"/>
<feBlend mode="normal" in2="BackgroundImageFix" result="effect1_dropShadow_48_15"/>
<feBlend mode="normal" in="SourceGraphic" in2="effect1_dropShadow_48_15" result="shape"/>
</filter>
<filter id="filter8_i_48_15" x="217.456" y="214.678" width="4.37964" height="81.4556" filterUnits="userSpaceOnUse" color-interpolation-filters="sRGB">
<feFlood flood-opacity="0" result="BackgroundImageFix"/>
<feBlend mode="normal" in="SourceGraphic" in2="BackgroundImageFix" result="shape"/>
<feColorMatrix in="SourceAlpha" type="matrix" values="0 0 0 0 0 0 0 0 0 0 0 0 0 0 0 0 0 0 127 0" result="hardAlpha"/>
<feOffset dy="2.75494"/>
<feGaussianBlur stdDeviation="1.37747"/>
<feComposite in2="hardAlpha" operator="arithmetic" k2="-1" k3="1"/>
<feColorMatrix type="matrix" values="0 0 0 0 0 0 0 0 0 0 0 0 0 0 0 0 0 0 0.25 0"/>
<feBlend mode="normal" in2="shape" result="effect1_innerShadow_48_15"/>
</filter>
<filter id="filter9_i_48_15" x="217.456" y="214.678" width="4.37964" height="81.4556" filterUnits="userSpaceOnUse" color-interpolation-filters="sRGB">
<feFlood flood-opacity="0" result="BackgroundImageFix"/>
<feBlend mode="normal" in="SourceGraphic" in2="BackgroundImageFix" result="shape"/>
<feColorMatrix in="SourceAlpha" type="matrix" values="0 0 0 0 0 0 0 0 0 0 0 0 0 0 0 0 0 0 127 0" result="hardAlpha"/>
<feOffset dy="2.75494"/>
<feGaussianBlur stdDeviation="1.37747"/>
<feComposite in2="hardAlpha" operator="arithmetic" k2="-1" k3="1"/>
<feColorMatrix type="matrix" values="0 0 0 0 0 0 0 0 0 0 0 0 0 0 0 0 0 0 0.25 0"/>
<feBlend mode="normal" in2="shape" result="effect1_innerShadow_48_15"/>
</filter>
<filter id="filter10_i_48_15" x="30.8821" y="214.678" width="4.37964" height="81.4556" filterUnits="userSpaceOnUse" color-interpolation-filters="sRGB">
<feFlood flood-opacity="0" result="BackgroundImageFix"/>
<feBlend mode="normal" in="SourceGraphic" in2="BackgroundImageFix" result="shape"/>
<feColorMatrix in="SourceAlpha" type="matrix" values="0 0 0 0 0 0 0 0 0 0 0 0 0 0 0 0 0 0 127 0" result="hardAlpha"/>
<feOffset dy="2.75494"/>
<feGaussianBlur stdDeviation="1.37747"/>
<feComposite in2="hardAlpha" operator="arithmetic" k2="-1" k3="1"/>
<feColorMatrix type="matrix" values="0 0 0 0 0 0 0 0 0 0 0 0 0 0 0 0 0 0 0.25 0"/>
<feBlend mode="normal" in2="shape" result="effect1_innerShadow_48_15"/>
</filter>
<filter id="filter11_i_48_15" x="30.8821" y="214.678" width="4.37964" height="81.4556" filterUnits="userSpaceOnUse" color-interpolation-filters="sRGB">
<feFlood flood-opacity="0" result="BackgroundImageFix"/>
<feBlend mode="normal" in="SourceGraphic" in2="BackgroundImageFix" result="shape"/>
<feColorMatrix in="SourceAlpha" type="matrix" values="0 0 0 0 0 0 0 0 0 0 0 0 0 0 0 0 0 0 127 0" result="hardAlpha"/>
<feOffset dy="2.75494"/>
<feGaussianBlur stdDeviation="1.37747"/>
<feComposite in2="hardAlpha" operator="arithmetic" k2="-1" k3="1"/>
<feColorMatrix type="matrix" values="0 0 0 0 0 0 0 0 0 0 0 0 0 0 0 0 0 0 0.25 0"/>
<feBlend mode="normal" in2="shape" result="effect1_innerShadow_48_15"/>
</filter>
<filter id="filter12_i_48_15" x="107.439" y="212.47" width="1.61475" height="81.4556" filterUnits="userSpaceOnUse" color-interpolation-filters="sRGB">
<feFlood flood-opacity="0" result="BackgroundImageFix"/>
<feBlend mode="normal" in="SourceGraphic" in2="BackgroundImageFix" result="shape"/>
<feColorMatrix in="SourceAlpha" type="matrix" values="0 0 0 0 0 0 0 0 0 0 0 0 0 0 0 0 0 0 127 0" result="hardAlpha"/>
<feOffset dy="2.75494"/>
<feGaussianBlur stdDeviation="1.37747"/>
<feComposite in2="hardAlpha" operator="arithmetic" k2="-1" k3="1"/>
<feColorMatrix type="matrix" values="0 0 0 0 0 0 0 0 0 0 0 0 0 0 0 0 0 0 0.25 0"/>
<feBlend mode="normal" in2="shape" result="effect1_innerShadow_48_15"/>
</filter>
<filter id="filter13_i_48_15" x="141.474" y="212.47" width="1.61475" height="81.4556" filterUnits="userSpaceOnUse" color-interpolation-filters="sRGB">
<feFlood flood-opacity="0" result="BackgroundImageFix"/>
<feBlend mode="normal" in="SourceGraphic" in2="BackgroundImageFix" result="shape"/>
<feColorMatrix in="SourceAlpha" type="matrix" values="0 0 0 0 0 0 0 0 0 0 0 0 0 0 0 0 0 0 127 0" result="hardAlpha"/>
<feOffset dy="2.75494"/>
<feGaussianBlur stdDeviation="1.37747"/>
<feComposite in2="hardAlpha" operator="arithmetic" k2="-1" k3="1"/>
<feColorMatrix type="matrix" values="0 0 0 0 0 0 0 0 0 0 0 0 0 0 0 0 0 0 0.25 0"/>
<feBlend mode="normal" in2="shape" result="effect1_innerShadow_48_15"/>
</filter>
<filter id="filter14_d_48_15" x="269.248" y="260.889" width="43.4947" height="10.6749" filterUnits="userSpaceOnUse" color-interpolation-filters="sRGB">
<feFlood flood-opacity="0" result="BackgroundImageFix"/>
<feColorMatrix in="SourceAlpha" type="matrix" values="0 0 0 0 0 0 0 0 0 0 0 0 0 0 0 0 0 0 127 0" result="hardAlpha"/>
<feOffset dy="2.75494"/>
<feGaussianBlur stdDeviation="1.37747"/>
<feComposite in2="hardAlpha" operator="out"/>
<feColorMatrix type="matrix" values="0 0 0 0 0 0 0 0 0 0 0 0 0 0 0 0 0 0 0.25 0"/>
<feBlend mode="normal" in2="BackgroundImageFix" result="effect1_dropShadow_48_15"/>
<feBlend mode="normal" in="SourceGraphic" in2="effect1_dropShadow_48_15" result="shape"/>
</filter>
<filter id="filter15_d_48_15" x="270.415" y="266.054" width="41.1603" height="10.1407" filterUnits="userSpaceOnUse" color-interpolation-filters="sRGB">
<feFlood flood-opacity="0" result="BackgroundImageFix"/>
<feColorMatrix in="SourceAlpha" type="matrix" values="0 0 0 0 0 0 0 0 0 0 0 0 0 0 0 0 0 0 127 0" result="hardAlpha"/>
<feOffset dy="2.75494"/>
<feGaussianBlur stdDeviation="1.37747"/>
<feComposite in2="hardAlpha" operator="out"/>
<feColorMatrix type="matrix" values="0 0 0 0 0 0 0 0 0 0 0 0 0 0 0 0 0 0 0.25 0"/>
<feBlend mode="normal" in2="BackgroundImageFix" result="effect1_dropShadow_48_15"/>
<feBlend mode="normal" in="SourceGraphic" in2="effect1_dropShadow_48_15" result="shape"/>
</filter>
<filter id="filter16_d_48_15" x="336.27" y="252.49" width="49.5646" height="13.9093" filterUnits="userSpaceOnUse" color-interpolation-filters="sRGB">
<feFlood flood-opacity="0" result="BackgroundImageFix"/>
<feColorMatrix in="SourceAlpha" type="matrix" values="0 0 0 0 0 0 0 0 0 0 0 0 0 0 0 0 0 0 127 0" result="hardAlpha"/>
<feOffset dy="2.75494"/>
<feGaussianBlur stdDeviation="1.37747"/>
<feComposite in2="hardAlpha" operator="out"/>
<feColorMatrix type="matrix" values="0 0 0 0 0 0 0 0 0 0 0 0 0 0 0 0 0 0 0.25 0"/>
<feBlend mode="normal" in2="BackgroundImageFix" result="effect1_dropShadow_48_15"/>
<feBlend mode="normal" in="SourceGraphic" in2="effect1_dropShadow_48_15" result="shape"/>
</filter>
<filter id="filter17_d_48_15" x="339.305" y="260.889" width="43.4947" height="10.6749" filterUnits="userSpaceOnUse" color-interpolation-filters="sRGB">
<feFlood flood-opacity="0" result="BackgroundImageFix"/>
<feColorMatrix in="SourceAlpha" type="matrix" values="0 0 0 0 0 0 0 0 0 0 0 0 0 0 0 0 0 0 127 0" result="hardAlpha"/>
<feOffset dy="2.75494"/>
<feGaussianBlur stdDeviation="1.37747"/>
<feComposite in2="hardAlpha" operator="out"/>
<feColorMatrix type="matrix" values="0 0 0 0 0 0 0 0 0 0 0 0 0 0 0 0 0 0 0.25 0"/>
<feBlend mode="normal" in2="BackgroundImageFix" result="effect1_dropShadow_48_15"/>
<feBlend mode="normal" in="SourceGraphic" in2="effect1_dropShadow_48_15" result="shape"/>
</filter>
<filter id="filter18_d_48_15" x="340.473" y="266.054" width="41.1603" height="10.1407" filterUnits="userSpaceOnUse" color-interpolation-filters="sRGB">
<feFlood flood-opacity="0" result="BackgroundImageFix"/>
<feColorMatrix in="SourceAlpha" type="matrix" values="0 0 0 0 0 0 0 0 0 0 0 0 0 0 0 0 0 0 127 0" result="hardAlpha"/>
<feOffset dy="2.75494"/>
<feGaussianBlur stdDeviation="1.37747"/>
<feComposite in2="hardAlpha" operator="out"/>
<feColorMatrix type="matrix" values="0 0 0 0 0 0 0 0 0 0 0 0 0 0 0 0 0 0 0.25 0"/>
<feBlend mode="normal" in2="BackgroundImageFix" result="effect1_dropShadow_48_15"/>
<feBlend mode="normal" in="SourceGraphic" in2="effect1_dropShadow_48_15" result="shape"/>
</filter>
<filter id="filter19_d_48_15" x="406.542" y="252.49" width="49.5646" height="13.9093" filterUnits="userSpaceOnUse" color-interpolation-filters="sRGB">
<feFlood flood-opacity="0" result="BackgroundImageFix"/>
<feColorMatrix in="SourceAlpha" type="matrix" values="0 0 0 0 0 0 0 0 0 0 0 0 0 0 0 0 0 0 127 0" result="hardAlpha"/>
<feOffset dy="2.75494"/>
<feGaussianBlur stdDeviation="1.37747"/>
<feComposite in2="hardAlpha" operator="out"/>
<feColorMatrix type="matrix" values="0 0 0 0 0 0 0 0 0 0 0 0 0 0 0 0 0 0 0.25 0"/>
<feBlend mode="normal" in2="BackgroundImageFix" result="effect1_dropShadow_48_15"/>
<feBlend mode="normal" in="SourceGraphic" in2="effect1_dropShadow_48_15" result="shape"/>
</filter>
<filter id="filter20_d_48_15" x="409.577" y="260.889" width="43.4947" height="10.6749" filterUnits="userSpaceOnUse" color-interpolation-filters="sRGB">
<feFlood flood-opacity="0" result="BackgroundImageFix"/>
<feColorMatrix in="SourceAlpha" type="matrix" values="0 0 0 0 0 0 0 0 0 0 0 0 0 0 0 0 0 0 127 0" result="hardAlpha"/>
<feOffset dy="2.75494"/>
<feGaussianBlur stdDeviation="1.37747"/>
<feComposite in2="hardAlpha" operator="out"/>
<feColorMatrix type="matrix" values="0 0 0 0 0 0 0 0 0 0 0 0 0 0 0 0 0 0 0.25 0"/>
<feBlend mode="normal" in2="BackgroundImageFix" result="effect1_dropShadow_48_15"/>
<feBlend mode="normal" in="SourceGraphic" in2="effect1_dropShadow_48_15" result="shape"/>
</filter>
<filter id="filter21_d_48_15" x="410.744" y="266.054" width="41.1603" height="10.1407" filterUnits="userSpaceOnUse" color-interpolation-filters="sRGB">
<feFlood flood-opacity="0" result="BackgroundImageFix"/>
<feColorMatrix in="SourceAlpha" type="matrix" values="0 0 0 0 0 0 0 0 0 0 0 0 0 0 0 0 0 0 127 0" result="hardAlpha"/>
<feOffset dy="2.75494"/>
<feGaussianBlur stdDeviation="1.37747"/>
<feComposite in2="hardAlpha" operator="out"/>
<feColorMatrix type="matrix" values="0 0 0 0 0 0 0 0 0 0 0 0 0 0 0 0 0 0 0.25 0"/>
<feBlend mode="normal" in2="BackgroundImageFix" result="effect1_dropShadow_48_15"/>
<feBlend mode="normal" in="SourceGraphic" in2="effect1_dropShadow_48_15" result="shape"/>
</filter>
<filter id="filter22_d_48_15" x="501.82" y="252.49" width="49.5646" height="13.9093" filterUnits="userSpaceOnUse" color-interpolation-filters="sRGB">
<feFlood flood-opacity="0" result="BackgroundImageFix"/>
<feColorMatrix in="SourceAlpha" type="matrix" values="0 0 0 0 0 0 0 0 0 0 0 0 0 0 0 0 0 0 127 0" result="hardAlpha"/>
<feOffset dy="2.75494"/>
<feGaussianBlur stdDeviation="1.37747"/>
<feComposite in2="hardAlpha" operator="out"/>
<feColorMatrix type="matrix" values="0 0 0 0 0 0 0 0 0 0 0 0 0 0 0 0 0 0 0.25 0"/>
<feBlend mode="normal" in2="BackgroundImageFix" result="effect1_dropShadow_48_15"/>
<feBlend mode="normal" in="SourceGraphic" in2="effect1_dropShadow_48_15" result="shape"/>
</filter>
<filter id="filter23_d_48_15" x="504.854" y="260.889" width="43.4947" height="10.6749" filterUnits="userSpaceOnUse" color-interpolation-filters="sRGB">
<feFlood flood-opacity="0" result="BackgroundImageFix"/>
<feColorMatrix in="SourceAlpha" type="matrix" values="0 0 0 0 0 0 0 0 0 0 0 0 0 0 0 0 0 0 127 0" result="hardAlpha"/>
<feOffset dy="2.75494"/>
<feGaussianBlur stdDeviation="1.37747"/>
<feComposite in2="hardAlpha" operator="out"/>
<feColorMatrix type="matrix" values="0 0 0 0 0 0 0 0 0 0 0 0 0 0 0 0 0 0 0.25 0"/>
<feBlend mode="normal" in2="BackgroundImageFix" result="effect1_dropShadow_48_15"/>
<feBlend mode="normal" in="SourceGraphic" in2="effect1_dropShadow_48_15" result="shape"/>
</filter>
<filter id="filter24_d_48_15" x="506.022" y="266.054" width="41.1603" height="10.1407" filterUnits="userSpaceOnUse" color-interpolation-filters="sRGB">
<feFlood flood-opacity="0" result="BackgroundImageFix"/>
<feColorMatrix in="SourceAlpha" type="matrix" values="0 0 0 0 0 0 0 0 0 0 0 0 0 0 0 0 0 0 127 0" result="hardAlpha"/>
<feOffset dy="2.75494"/>
<feGaussianBlur stdDeviation="1.37747"/>
<feComposite in2="hardAlpha" operator="out"/>
<feColorMatrix type="matrix" values="0 0 0 0 0 0 0 0 0 0 0 0 0 0 0 0 0 0 0.25 0"/>
<feBlend mode="normal" in2="BackgroundImageFix" result="effect1_dropShadow_48_15"/>
<feBlend mode="normal" in="SourceGraphic" in2="effect1_dropShadow_48_15" result="shape"/>
</filter>
<filter id="filter25_d_48_15" x="571.984" y="252.49" width="49.5646" height="13.9093" filterUnits="userSpaceOnUse" color-interpolation-filters="sRGB">
<feFlood flood-opacity="0" result="BackgroundImageFix"/>
<feColorMatrix in="SourceAlpha" type="matrix" values="0 0 0 0 0 0 0 0 0 0 0 0 0 0 0 0 0 0 127 0" result="hardAlpha"/>
<feOffset dy="2.75494"/>
<feGaussianBlur stdDeviation="1.37747"/>
<feComposite in2="hardAlpha" operator="out"/>
<feColorMatrix type="matrix" values="0 0 0 0 0 0 0 0 0 0 0 0 0 0 0 0 0 0 0.25 0"/>
<feBlend mode="normal" in2="BackgroundImageFix" result="effect1_dropShadow_48_15"/>
<feBlend mode="normal" in="SourceGraphic" in2="effect1_dropShadow_48_15" result="shape"/>
</filter>
<filter id="filter26_d_48_15" x="575.018" y="260.889" width="43.4947" height="10.6749" filterUnits="userSpaceOnUse" color-interpolation-filters="sRGB">
<feFlood flood-opacity="0" result="BackgroundImageFix"/>
<feColorMatrix in="SourceAlpha" type="matrix" values="0 0 0 0 0 0 0 0 0 0 0 0 0 0 0 0 0 0 127 0" result="hardAlpha"/>
<feOffset dy="2.75494"/>
<feGaussianBlur stdDeviation="1.37747"/>
<feComposite in2="hardAlpha" operator="out"/>
<feColorMatrix type="matrix" values="0 0 0 0 0 0 0 0 0 0 0 0 0 0 0 0 0 0 0.25 0"/>
<feBlend mode="normal" in2="BackgroundImageFix" result="effect1_dropShadow_48_15"/>
<feBlend mode="normal" in="SourceGraphic" in2="effect1_dropShadow_48_15" result="shape"/>
</filter>
<filter id="filter27_d_48_15" x="576.186" y="266.054" width="41.1603" height="10.1407" filterUnits="userSpaceOnUse" color-interpolation-filters="sRGB">
<feFlood flood-opacity="0" result="BackgroundImageFix"/>
<feColorMatrix in="SourceAlpha" type="matrix" values="0 0 0 0 0 0 0 0 0 0 0 0 0 0 0 0 0 0 127 0" result="hardAlpha"/>
<feOffset dy="2.75494"/>
<feGaussianBlur stdDeviation="1.37747"/>
<feComposite in2="hardAlpha" operator="out"/>
<feColorMatrix type="matrix" values="0 0 0 0 0 0 0 0 0 0 0 0 0 0 0 0 0 0 0.25 0"/>
<feBlend mode="normal" in2="BackgroundImageFix" result="effect1_dropShadow_48_15"/>
<feBlend mode="normal" in="SourceGraphic" in2="effect1_dropShadow_48_15" result="shape"/>
</filter>
<filter id="filter28_d_48_15" x="643.15" y="252.49" width="49.5646" height="13.9093" filterUnits="userSpaceOnUse" color-interpolation-filters="sRGB">
<feFlood flood-opacity="0" result="BackgroundImageFix"/>
<feColorMatrix in="SourceAlpha" type="matrix" values="0 0 0 0 0 0 0 0 0 0 0 0 0 0 0 0 0 0 127 0" result="hardAlpha"/>
<feOffset dy="2.75494"/>
<feGaussianBlur stdDeviation="1.37747"/>
<feComposite in2="hardAlpha" operator="out"/>
<feColorMatrix type="matrix" values="0 0 0 0 0 0 0 0 0 0 0 0 0 0 0 0 0 0 0.25 0"/>
<feBlend mode="normal" in2="BackgroundImageFix" result="effect1_dropShadow_48_15"/>
<feBlend mode="normal" in="SourceGraphic" in2="effect1_dropShadow_48_15" result="shape"/>
</filter>
<filter id="filter29_d_48_15" x="646.185" y="260.889" width="43.4947" height="10.6749" filterUnits="userSpaceOnUse" color-interpolation-filters="sRGB">
<feFlood flood-opacity="0" result="BackgroundImageFix"/>
<feColorMatrix in="SourceAlpha" type="matrix" values="0 0 0 0 0 0 0 0 0 0 0 0 0 0 0 0 0 0 127 0" result="hardAlpha"/>
<feOffset dy="2.75494"/>
<feGaussianBlur stdDeviation="1.37747"/>
<feComposite in2="hardAlpha" operator="out"/>
<feColorMatrix type="matrix" values="0 0 0 0 0 0 0 0 0 0 0 0 0 0 0 0 0 0 0.25 0"/>
<feBlend mode="normal" in2="BackgroundImageFix" result="effect1_dropShadow_48_15"/>
<feBlend mode="normal" in="SourceGraphic" in2="effect1_dropShadow_48_15" result="shape"/>
</filter>
<filter id="filter30_d_48_15" x="647.352" y="266.054" width="41.1603" height="10.1407" filterUnits="userSpaceOnUse" color-interpolation-filters="sRGB">
<feFlood flood-opacity="0" result="BackgroundImageFix"/>
<feColorMatrix in="SourceAlpha" type="matrix" values="0 0 0 0 0 0 0 0 0 0 0 0 0 0 0 0 0 0 127 0" result="hardAlpha"/>
<feOffset dy="2.75494"/>
<feGaussianBlur stdDeviation="1.37747"/>
<feComposite in2="hardAlpha" operator="out"/>
<feColorMatrix type="matrix" values="0 0 0 0 0 0 0 0 0 0 0 0 0 0 0 0 0 0 0.25 0"/>
<feBlend mode="normal" in2="BackgroundImageFix" result="effect1_dropShadow_48_15"/>
<feBlend mode="normal" in="SourceGraphic" in2="effect1_dropShadow_48_15" result="shape"/>
</filter>
<clipPath id="clip0_48_15">
<rect width="722" height="300" fill="white"/>
</clipPath>
</defs>
</svg>
