<svg width="632" height="301" viewBox="0 0 632 301" fill="none" xmlns="http://www.w3.org/2000/svg">
<g clip-path="url(#clip0_24_645)">
<rect x="4.30884" y="175.368" width="624.485" height="125.148" fill="#AA5E3F"/>
<rect x="4.30884" y="28.9836" width="624.485" height="144.032" fill="#DF9F84"/>
<g filter="url(#filter0_i_24_645)">
<rect x="4.30884" y="173.015" width="624.485" height="5.16595" fill="#EBE2DB"/>
</g>
<rect x="0.952393" y="0.516602" width="631.172" height="28.4671" fill="#EBE2DB"/>
<rect x="49.8613" y="88.9983" width="48.6312" height="83.0389" fill="#EBE2DB"/>
<rect x="129.993" y="88.9983" width="48.6312" height="83.0389" fill="#EBE2DB"/>
<rect x="210.124" y="88.9983" width="48.6312" height="83.0389" fill="#EBE2DB"/>
<rect x="290.256" y="88.9983" width="48.6312" height="83.0389" fill="#EBE2DB"/>
<rect x="370.387" y="88.9983" width="48.6312" height="83.0389" fill="#EBE2DB"/>
<rect x="450.519" y="88.9983" width="48.6312" height="83.0389" fill="#EBE2DB"/>
<g filter="url(#filter1_d_24_645)">
<rect x="3.33057" y="27.2751" width="5.97883" height="13.5773" fill="#EBE2DB" stroke="#914E3B"/>
<rect x="34.2798" y="27.2751" width="5.97883" height="13.5773" fill="#EBE2DB" stroke="#914E3B"/>
<rect x="65.229" y="27.2751" width="5.97883" height="13.5773" fill="#EBE2DB" stroke="#914E3B"/>
<rect x="96.1782" y="27.2751" width="5.97883" height="13.5773" fill="#EBE2DB" stroke="#914E3B"/>
<rect x="127.127" y="27.2751" width="5.97883" height="13.5773" fill="#EBE2DB" stroke="#914E3B"/>
<rect x="158.077" y="27.2751" width="5.97883" height="13.5773" fill="#EBE2DB" stroke="#914E3B"/>
<rect x="189.026" y="27.2751" width="5.97883" height="13.5773" fill="#EBE2DB" stroke="#914E3B"/>
<rect x="219.975" y="27.2751" width="5.97883" height="13.5773" fill="#EBE2DB" stroke="#914E3B"/>
<rect x="250.924" y="27.2751" width="5.97883" height="13.5773" fill="#EBE2DB" stroke="#914E3B"/>
<rect x="281.874" y="27.2751" width="5.97883" height="13.5773" fill="#EBE2DB" stroke="#914E3B"/>
<rect x="312.823" y="27.2751" width="5.97883" height="13.5773" fill="#EBE2DB" stroke="#914E3B"/>
<rect x="343.772" y="27.2751" width="5.97883" height="13.5773" fill="#EBE2DB" stroke="#914E3B"/>
<rect x="374.721" y="27.2751" width="5.97883" height="13.5773" fill="#EBE2DB" stroke="#914E3B"/>
<rect x="405.67" y="27.2751" width="5.97883" height="13.5773" fill="#EBE2DB" stroke="#914E3B"/>
<rect x="436.62" y="27.2751" width="5.97883" height="13.5773" fill="#EBE2DB" stroke="#914E3B"/>
<rect x="467.569" y="27.2751" width="5.97883" height="13.5773" fill="#EBE2DB" stroke="#914E3B"/>
<rect x="498.518" y="27.2751" width="5.97883" height="13.5773" fill="#EBE2DB" stroke="#914E3B"/>
<rect x="529.467" y="27.2751" width="5.97883" height="13.5773" fill="#EBE2DB" stroke="#914E3B"/>
<rect x="560.417" y="27.2751" width="5.97883" height="13.5773" fill="#EBE2DB" stroke="#914E3B"/>
<rect x="591.366" y="27.2751" width="5.97883" height="13.5773" fill="#EBE2DB" stroke="#914E3B"/>
<rect x="622.315" y="27.2751" width="5.97883" height="13.5773" fill="#EBE2DB" stroke="#914E3B"/>
</g>
<rect x="2.83057" y="38.8181" width="625.963" height="5.06902" fill="#EBE2DB"/>
<rect x="44.0486" y="61.9861" width="60.2569" height="4.11452" fill="#EBE2DB"/>
<rect x="44.0486" y="66.1006" width="3.9266" height="4.7991" fill="#EBE2DB"/>
<rect x="100.379" y="66.1006" width="3.9266" height="4.7991" fill="#EBE2DB"/>
<rect x="53.8875" y="66.1006" width="3.9266" height="4.7991" fill="#EBE2DB"/>
<rect x="66.3882" y="66.1006" width="3.9266" height="4.7991" fill="#EBE2DB"/>
<rect x="78.8889" y="66.1006" width="3.9266" height="4.7991" fill="#EBE2DB"/>
<rect x="90.54" y="66.1006" width="3.9266" height="4.7991" fill="#EBE2DB"/>
<rect x="124.18" y="61.9861" width="60.2569" height="4.11452" fill="#EBE2DB"/>
<rect x="124.18" y="66.1006" width="3.9266" height="4.7991" fill="#EBE2DB"/>
<rect x="180.51" y="66.1006" width="3.9266" height="4.7991" fill="#EBE2DB"/>
<rect x="134.019" y="66.1006" width="3.9266" height="4.7991" fill="#EBE2DB"/>
<rect x="146.52" y="66.1006" width="3.9266" height="4.7991" fill="#EBE2DB"/>
<rect x="159.021" y="66.1006" width="3.9266" height="4.7991" fill="#EBE2DB"/>
<rect x="170.671" y="66.1006" width="3.9266" height="4.7991" fill="#EBE2DB"/>
<rect x="204.312" y="61.9861" width="60.2569" height="4.11452" fill="#EBE2DB"/>
<rect x="204.312" y="66.1006" width="3.9266" height="4.7991" fill="#EBE2DB"/>
<rect x="260.642" y="66.1006" width="3.9266" height="4.7991" fill="#EBE2DB"/>
<rect x="214.15" y="66.1006" width="3.9266" height="4.7991" fill="#EBE2DB"/>
<rect x="226.651" y="66.1006" width="3.9266" height="4.7991" fill="#EBE2DB"/>
<rect x="239.152" y="66.1006" width="3.9266" height="4.7991" fill="#EBE2DB"/>
<rect x="250.803" y="66.1006" width="3.9266" height="4.7991" fill="#EBE2DB"/>
<rect x="284.443" y="61.9861" width="60.2569" height="4.11452" fill="#EBE2DB"/>
<rect x="284.443" y="66.1006" width="3.9266" height="4.7991" fill="#EBE2DB"/>
<rect x="340.773" y="66.1006" width="3.9266" height="4.7991" fill="#EBE2DB"/>
<rect x="294.282" y="66.1006" width="3.9266" height="4.7991" fill="#EBE2DB"/>
<rect x="306.782" y="66.1006" width="3.9266" height="4.7991" fill="#EBE2DB"/>
<rect x="319.283" y="66.1006" width="3.9266" height="4.7991" fill="#EBE2DB"/>
<rect x="330.934" y="66.1006" width="3.9266" height="4.7991" fill="#EBE2DB"/>
<rect x="364.574" y="61.9861" width="60.2569" height="4.11452" fill="#EBE2DB"/>
<rect x="364.574" y="66.1006" width="3.9266" height="4.7991" fill="#EBE2DB"/>
<rect x="420.905" y="66.1006" width="3.9266" height="4.7991" fill="#EBE2DB"/>
<rect x="374.413" y="66.1006" width="3.9266" height="4.7991" fill="#EBE2DB"/>
<rect x="386.914" y="66.1006" width="3.9266" height="4.7991" fill="#EBE2DB"/>
<rect x="399.415" y="66.1006" width="3.9266" height="4.7991" fill="#EBE2DB"/>
<rect x="411.066" y="66.1006" width="3.9266" height="4.7991" fill="#EBE2DB"/>
<rect x="444.706" y="61.9861" width="60.2569" height="4.11452" fill="#EBE2DB"/>
<rect x="444.706" y="66.1006" width="3.9266" height="4.7991" fill="#EBE2DB"/>
<rect x="501.036" y="66.1006" width="3.9266" height="4.7991" fill="#EBE2DB"/>
<rect x="454.544" y="66.1006" width="3.9266" height="4.7991" fill="#EBE2DB"/>
<rect x="467.045" y="66.1006" width="3.9266" height="4.7991" fill="#EBE2DB"/>
<rect x="479.546" y="66.1006" width="3.9266" height="4.7991" fill="#EBE2DB"/>
<rect x="491.197" y="66.1006" width="3.9266" height="4.7991" fill="#EBE2DB"/>
<rect x="536.463" y="88.9983" width="48.6312" height="83.0389" fill="#EBE2DB"/>
<rect x="530.65" y="61.9861" width="60.2569" height="4.11452" fill="#EBE2DB"/>
<rect x="530.65" y="66.1006" width="3.9266" height="4.7991" fill="#EBE2DB"/>
<rect x="586.98" y="66.1006" width="3.9266" height="4.7991" fill="#EBE2DB"/>
<rect x="540.489" y="66.1006" width="3.9266" height="4.7991" fill="#EBE2DB"/>
<rect x="552.989" y="66.1006" width="3.9266" height="4.7991" fill="#EBE2DB"/>
<rect x="565.49" y="66.1006" width="3.9266" height="4.7991" fill="#EBE2DB"/>
<rect x="577.141" y="66.1006" width="3.9266" height="4.7991" fill="#EBE2DB"/>
<rect x="0.952393" y="162.825" width="25.4406" height="9.212" fill="#EBE2DB"/>
<rect x="0.952393" y="148.593" width="25.4406" height="9.212" fill="#EBE2DB"/>
<rect x="0.952393" y="134.361" width="25.4406" height="9.212" fill="#EBE2DB"/>
<rect x="0.952393" y="120.129" width="25.4406" height="9.212" fill="#EBE2DB"/>
<rect x="0.952393" y="105.897" width="25.4406" height="9.212" fill="#EBE2DB"/>
<rect x="0.952393" y="91.6653" width="25.4406" height="9.212" fill="#EBE2DB"/>
<rect x="0.952393" y="77.4333" width="25.4406" height="9.212" fill="#EBE2DB"/>
<rect x="0.952393" y="63.2012" width="25.4406" height="9.212" fill="#EBE2DB"/>
<rect x="0.952393" y="48.9692" width="25.4406" height="9.212" fill="#EBE2DB"/>
<rect x="606.684" y="162.825" width="25.4406" height="9.212" fill="#EBE2DB"/>
<rect x="606.684" y="148.593" width="25.4406" height="9.212" fill="#EBE2DB"/>
<rect x="606.684" y="134.361" width="25.4406" height="9.212" fill="#EBE2DB"/>
<rect x="606.684" y="120.129" width="25.4406" height="9.212" fill="#EBE2DB"/>
<rect x="606.684" y="105.897" width="25.4406" height="9.212" fill="#EBE2DB"/>
<rect x="606.684" y="91.6653" width="25.4406" height="9.212" fill="#EBE2DB"/>
<rect x="606.684" y="77.4333" width="25.4406" height="9.212" fill="#EBE2DB"/>
<rect x="606.684" y="63.2012" width="25.4406" height="9.212" fill="#EBE2DB"/>
<rect x="606.684" y="48.9692" width="25.4406" height="9.212" fill="#EBE2DB"/>
<rect x="46.5928" y="199.338" width="48.6312" height="101.179" fill="#EBE2DB"/>
<rect x="51.3091" y="204.729" width="39.061" height="82.8253" fill="#4A3E34"/>
<rect x="55.3286" y="192.872" width="31.022" height="9.16744" fill="#EBE2DB"/>
<rect x="132.003" y="199.338" width="48.6312" height="101.179" fill="#EBE2DB"/>
<rect x="136.719" y="204.729" width="39.061" height="82.8253" fill="#4A3E34"/>
<rect x="140.739" y="192.872" width="31.022" height="9.16744" fill="#EBE2DB"/>
<rect x="212.01" y="199.338" width="48.6312" height="101.179" fill="#EBE2DB"/>
<rect x="216.727" y="204.729" width="39.061" height="82.8253" fill="#4A3E34"/>
<rect x="220.746" y="192.872" width="31.022" height="9.16744" fill="#EBE2DB"/>
<rect x="370.387" y="199.338" width="48.6312" height="101.179" fill="#EBE2DB"/>
<rect x="375.104" y="204.729" width="39.061" height="82.8253" fill="#4A3E34"/>
<rect x="379.123" y="192.872" width="31.022" height="9.16744" fill="#EBE2DB"/>
<rect x="455.798" y="199.338" width="48.6312" height="101.179" fill="#EBE2DB"/>
<rect x="460.514" y="204.729" width="39.061" height="82.8253" fill="#4A3E34"/>
<rect x="464.533" y="192.872" width="31.022" height="9.16744" fill="#EBE2DB"/>
<rect x="535.805" y="199.338" width="48.6312" height="101.179" fill="#EBE2DB"/>
<rect x="540.521" y="204.729" width="39.061" height="82.8253" fill="#4A3E34"/>
<rect x="544.541" y="192.872" width="31.022" height="9.16744" fill="#EBE2DB"/>
<rect x="55.3286" y="94.1848" width="37.1747" height="72.666" fill="#181E1E"/>
<rect x="53.1301" y="112.974" width="45.3625" height="2.96125" fill="#EBE2DB"/>
<rect x="75.3965" y="94.1848" width="72.666" height="2.96125" transform="rotate(90 75.3965 94.1848)" fill="#EBE2DB"/>
<rect x="135.46" y="94.1848" width="37.1747" height="72.666" fill="#181E1E"/>
<rect x="133.262" y="112.974" width="45.3625" height="2.96125" fill="#EBE2DB"/>
<rect x="155.528" y="94.1848" width="72.666" height="2.96125" transform="rotate(90 155.528 94.1848)" fill="#EBE2DB"/>
<rect x="215.592" y="94.1848" width="37.1747" height="72.666" fill="#181E1E"/>
<rect x="213.393" y="112.974" width="45.3625" height="2.96125" fill="#EBE2DB"/>
<rect x="235.659" y="94.1848" width="72.666" height="2.96125" transform="rotate(90 235.659 94.1848)" fill="#EBE2DB"/>
<rect x="295.329" y="94.1848" width="37.1747" height="72.666" fill="#181E1E"/>
<rect x="293.131" y="112.974" width="45.3625" height="2.96125" fill="#EBE2DB"/>
<rect x="315.397" y="94.1848" width="72.666" height="2.96125" transform="rotate(90 315.397 94.1848)" fill="#EBE2DB"/>
<rect x="375.854" y="94.1848" width="37.1747" height="72.666" fill="#181E1E"/>
<rect x="373.656" y="112.974" width="45.3625" height="2.96125" fill="#EBE2DB"/>
<rect x="395.922" y="94.1848" width="72.666" height="2.96125" transform="rotate(90 395.922 94.1848)" fill="#EBE2DB"/>
<rect x="455.986" y="94.1848" width="37.1747" height="72.666" fill="#181E1E"/>
<rect x="453.788" y="112.974" width="45.3625" height="2.96125" fill="#EBE2DB"/>
<rect x="476.054" y="94.1848" width="72.666" height="2.96125" transform="rotate(90 476.054 94.1848)" fill="#EBE2DB"/>
<rect x="541.93" y="94.1848" width="37.1747" height="72.666" fill="#181E1E"/>
<rect x="539.731" y="112.974" width="45.3625" height="2.96125" fill="#EBE2DB"/>
<rect x="561.998" y="94.1848" width="72.666" height="2.96125" transform="rotate(90 561.998 94.1848)" fill="#EBE2DB"/>
<rect x="293.51" y="204.729" width="44.6051" height="95.7871" fill="#591D12"/>
</g>
<defs>
<filter id="filter0_i_24_645" x="4.30884" y="173.015" width="624.485" height="9.16602" filterUnits="userSpaceOnUse" color-interpolation-filters="sRGB">
<feFlood flood-opacity="0" result="BackgroundImageFix"/>
<feBlend mode="normal" in="SourceGraphic" in2="BackgroundImageFix" result="shape"/>
<feColorMatrix in="SourceAlpha" type="matrix" values="0 0 0 0 0 0 0 0 0 0 0 0 0 0 0 0 0 0 127 0" result="hardAlpha"/>
<feOffset dy="4"/>
<feGaussianBlur stdDeviation="2"/>
<feComposite in2="hardAlpha" operator="arithmetic" k2="-1" k3="1"/>
<feColorMatrix type="matrix" values="0 0 0 0 0 0 0 0 0 0 0 0 0 0 0 0 0 0 0.25 0"/>
<feBlend mode="normal" in2="shape" result="effect1_innerShadow_24_645"/>
</filter>
<filter id="filter1_d_24_645" x="2.83057" y="26.7751" width="633.963" height="22.5774" filterUnits="userSpaceOnUse" color-interpolation-filters="sRGB">
<feFlood flood-opacity="0" result="BackgroundImageFix"/>
<feColorMatrix in="SourceAlpha" type="matrix" values="0 0 0 0 0 0 0 0 0 0 0 0 0 0 0 0 0 0 127 0" result="hardAlpha"/>
<feOffset dx="4" dy="4"/>
<feGaussianBlur stdDeviation="2"/>
<feComposite in2="hardAlpha" operator="out"/>
<feColorMatrix type="matrix" values="0 0 0 0 0 0 0 0 0 0 0 0 0 0 0 0 0 0 0.25 0"/>
<feBlend mode="normal" in2="BackgroundImageFix" result="effect1_dropShadow_24_645"/>
<feBlend mode="normal" in="SourceGraphic" in2="effect1_dropShadow_24_645" result="shape"/>
</filter>
<clipPath id="clip0_24_645">
<rect width="631" height="300" fill="white" transform="translate(0.952393 0.516602)"/>
</clipPath>
</defs>
</svg>
