<svg width="715" height="295" viewBox="0 0 715 295" fill="none" xmlns="http://www.w3.org/2000/svg">
<g clip-path="url(#clip0_52_726)">
<rect x="19.5845" y="74.7759" width="675.562" height="107.423" fill="#8F5649"/>
<rect x="19.5845" y="182.199" width="675.562" height="107.423" fill="#8F5649"/>
<g filter="url(#filter0_di_52_726)">
<rect x="309.63" y="79.0264" width="95.0066" height="210.596" fill="#8F5649"/>
</g>
<rect x="19.5845" y="227.359" width="675.562" height="62.2632" fill="#C3BCB2"/>
<rect x="412.109" y="205.085" width="31.8651" height="55.4177" fill="#D9D9D9"/>
<rect x="469.604" y="205.085" width="31.8651" height="55.4177" fill="#D9D9D9"/>
<rect x="589.099" y="205.085" width="31.8651" height="55.4177" fill="#D9D9D9"/>
<rect x="646.595" y="205.085" width="31.8651" height="55.4177" fill="#D9D9D9"/>
<rect x="521.905" y="197.119" width="46.7584" height="63.3838" fill="#D9D9D9"/>
<rect x="35.8071" y="205.085" width="31.8651" height="55.4177" fill="#D9D9D9"/>
<rect x="93.3027" y="205.085" width="31.8651" height="55.4177" fill="#D9D9D9"/>
<rect x="212.797" y="205.085" width="31.8651" height="55.4177" fill="#D9D9D9"/>
<rect x="270.293" y="205.085" width="31.8651" height="55.4177" fill="#D9D9D9"/>
<rect x="145.603" y="197.119" width="46.7584" height="63.3838" fill="#D9D9D9"/>
<path d="M428.041 127.398L425.3 109.343L430.783 109.343L428.041 127.398Z" fill="#D9D9D9"/>
<rect x="412.109" y="116.914" width="31.8651" height="52.1571" fill="#D9D9D9"/>
<rect x="415.955" y="118.892" width="24.1725" height="48.6635" fill="#413738"/>
<rect x="417.289" y="135.929" width="9.30465" height="27.899" fill="#CEDBE1"/>
<rect x="429.489" y="135.929" width="9.30465" height="27.899" fill="#CEDBE1"/>
<rect x="417.289" y="123.723" width="21.5049" height="9.71474" fill="#CEDBE1"/>
<path d="M357.134 127.398L354.393 109.343L359.875 109.343L357.134 127.398Z" fill="#D9D9D9"/>
<rect x="341.201" y="116.914" width="31.8651" height="52.1571" fill="#D9D9D9"/>
<rect x="345.047" y="118.892" width="24.1725" height="48.6635" fill="#413738"/>
<rect x="346.381" y="135.929" width="9.30465" height="27.899" fill="#CEDBE1"/>
<rect x="358.582" y="135.929" width="9.30465" height="27.899" fill="#CEDBE1"/>
<rect x="346.381" y="123.723" width="21.5049" height="9.71474" fill="#CEDBE1"/>
<path d="M485.537 127.398L482.796 109.343L488.278 109.343L485.537 127.398Z" fill="#D9D9D9"/>
<rect x="469.604" y="116.914" width="31.8651" height="52.1571" fill="#D9D9D9"/>
<rect x="473.451" y="118.892" width="24.1725" height="48.6635" fill="#413738"/>
<rect x="474.784" y="135.929" width="9.30465" height="27.899" fill="#CEDBE1"/>
<rect x="486.985" y="135.929" width="9.30465" height="27.899" fill="#CEDBE1"/>
<rect x="474.784" y="123.723" width="21.5049" height="9.71474" fill="#CEDBE1"/>
<path d="M545.284 127.398L542.543 109.343L548.025 109.343L545.284 127.398Z" fill="#D9D9D9"/>
<rect x="529.351" y="116.914" width="31.8651" height="52.1571" fill="#D9D9D9"/>
<rect x="533.198" y="118.892" width="24.1725" height="48.6635" fill="#413738"/>
<rect x="534.531" y="135.929" width="9.30465" height="27.899" fill="#CEDBE1"/>
<rect x="546.732" y="135.929" width="9.30465" height="27.899" fill="#CEDBE1"/>
<rect x="534.531" y="123.723" width="21.5049" height="9.71474" fill="#CEDBE1"/>
<path d="M605.032 127.398L602.291 109.343L607.773 109.343L605.032 127.398Z" fill="#D9D9D9"/>
<rect x="589.099" y="116.914" width="31.8651" height="52.1571" fill="#D9D9D9"/>
<rect x="592.945" y="118.892" width="24.1725" height="48.6635" fill="#413738"/>
<rect x="594.279" y="135.929" width="9.30465" height="27.899" fill="#CEDBE1"/>
<rect x="606.479" y="135.929" width="9.30465" height="27.899" fill="#CEDBE1"/>
<rect x="594.279" y="123.723" width="21.5049" height="9.71474" fill="#CEDBE1"/>
<path d="M662.527 127.398L659.786 109.343L665.268 109.343L662.527 127.398Z" fill="#D9D9D9"/>
<rect x="646.595" y="116.914" width="31.8651" height="52.1571" fill="#D9D9D9"/>
<rect x="650.441" y="118.892" width="24.1725" height="48.6635" fill="#413738"/>
<rect x="651.774" y="135.929" width="9.30465" height="27.899" fill="#CEDBE1"/>
<rect x="663.975" y="135.929" width="9.30465" height="27.899" fill="#CEDBE1"/>
<rect x="651.774" y="123.723" width="21.5049" height="9.71474" fill="#CEDBE1"/>
<path d="M51.7392 127.398L48.9982 109.344L54.4803 109.344L51.7392 127.398Z" fill="#D9D9D9"/>
<rect x="35.8066" y="116.915" width="31.8651" height="52.1571" fill="#D9D9D9"/>
<rect x="39.6528" y="118.892" width="24.1725" height="48.6635" fill="#413738"/>
<rect x="40.9868" y="135.929" width="9.30465" height="27.899" fill="#CEDBE1"/>
<rect x="53.1875" y="135.929" width="9.30465" height="27.899" fill="#CEDBE1"/>
<rect x="40.9868" y="123.724" width="21.5049" height="9.71474" fill="#CEDBE1"/>
<path d="M51.7392 217.122L48.9982 199.067L54.4803 199.067L51.7392 217.122Z" fill="#D9D9D9"/>
<path d="M109.235 217.122L106.494 199.067L111.976 199.067L109.235 217.122Z" fill="#D9D9D9"/>
<path d="M168.982 206.272L166.241 188.217L171.723 188.217L168.982 206.272Z" fill="#D9D9D9"/>
<path d="M357.366 206.272L354.625 188.217L360.107 188.217L357.366 206.272Z" fill="#D9D9D9"/>
<path d="M545.284 206.272L542.543 188.217L548.025 188.217L545.284 206.272Z" fill="#D9D9D9"/>
<path d="M228.73 217.122L225.989 199.067L231.471 199.067L228.73 217.122Z" fill="#D9D9D9"/>
<path d="M286.226 217.122L283.485 199.067L288.967 199.067L286.226 217.122Z" fill="#D9D9D9"/>
<path d="M109.235 127.398L106.494 109.343L111.976 109.343L109.235 127.398Z" fill="#D9D9D9"/>
<rect x="93.3027" y="116.914" width="31.8651" height="52.1571" fill="#D9D9D9"/>
<rect x="97.1489" y="118.892" width="24.1725" height="48.6635" fill="#413738"/>
<rect x="98.4824" y="135.929" width="9.30465" height="27.899" fill="#CEDBE1"/>
<rect x="110.683" y="135.929" width="9.30465" height="27.899" fill="#CEDBE1"/>
<rect x="98.4824" y="123.723" width="21.5049" height="9.71474" fill="#CEDBE1"/>
<path d="M168.983 127.398L166.242 109.343L171.724 109.343L168.983 127.398Z" fill="#D9D9D9"/>
<rect x="153.05" y="116.914" width="31.8651" height="52.1571" fill="#D9D9D9"/>
<rect x="156.896" y="118.892" width="24.1725" height="48.6635" fill="#413738"/>
<rect x="158.23" y="135.929" width="9.30465" height="27.899" fill="#CEDBE1"/>
<rect x="170.431" y="135.929" width="9.30465" height="27.899" fill="#CEDBE1"/>
<rect x="158.23" y="123.723" width="21.5049" height="9.71474" fill="#CEDBE1"/>
<path d="M228.73 127.398L225.989 109.343L231.471 109.343L228.73 127.398Z" fill="#D9D9D9"/>
<rect x="212.797" y="116.914" width="31.8651" height="52.1571" fill="#D9D9D9"/>
<rect x="216.644" y="118.892" width="24.1725" height="48.6635" fill="#413738"/>
<rect x="217.978" y="135.929" width="9.30465" height="27.899" fill="#CEDBE1"/>
<rect x="230.178" y="135.929" width="9.30465" height="27.899" fill="#CEDBE1"/>
<rect x="217.978" y="123.723" width="21.5049" height="9.71474" fill="#CEDBE1"/>
<path d="M286.225 127.398L283.484 109.343L288.966 109.343L286.225 127.398Z" fill="#D9D9D9"/>
<rect x="270.292" y="116.914" width="31.8651" height="52.1571" fill="#D9D9D9"/>
<rect x="274.139" y="118.892" width="24.1725" height="48.6635" fill="#413738"/>
<rect x="275.473" y="135.929" width="9.30465" height="27.899" fill="#CEDBE1"/>
<rect x="287.673" y="135.929" width="9.30465" height="27.899" fill="#CEDBE1"/>
<rect x="275.473" y="123.723" width="21.5049" height="9.71474" fill="#CEDBE1"/>
<path d="M428.041 217.122L425.3 199.067L430.783 199.067L428.041 217.122Z" fill="#D9D9D9"/>
<path d="M485.537 217.122L482.796 199.067L488.278 199.067L485.537 217.122Z" fill="#D9D9D9"/>
<path d="M605.031 217.122L602.29 199.067L607.772 199.067L605.031 217.122Z" fill="#D9D9D9"/>
<path d="M662.526 217.122L659.785 199.067L665.267 199.067L662.526 217.122Z" fill="#D9D9D9"/>
<rect x="393.564" y="64.0469" width="321.167" height="10.729" fill="#183620"/>
<rect y="64.0469" width="320.749" height="10.729" fill="#183620"/>
<rect x="38.4497" y="208.312" width="26.5796" height="10.9021" fill="#717B80"/>
<rect x="38.4497" y="221.892" width="11.8417" height="34.4731" fill="#717B80"/>
<rect x="53.1875" y="221.892" width="11.8417" height="34.4731" fill="#717B80"/>
<rect x="95.9448" y="208.312" width="26.5796" height="10.9021" fill="#717B80"/>
<rect x="95.9448" y="221.892" width="11.8417" height="34.4731" fill="#717B80"/>
<rect x="148.324" y="200.821" width="41.3167" height="10.9021" fill="#717B80"/>
<rect x="148.324" y="214.645" width="11.8417" height="41.7203" fill="#717B80"/>
<rect x="163.061" y="214.645" width="11.8417" height="41.7203" fill="#717B80"/>
<rect x="110.683" y="221.892" width="11.8417" height="34.4731" fill="#717B80"/>
<rect x="177.799" y="214.645" width="11.8417" height="41.7203" fill="#717B80"/>
<rect x="524.626" y="200.821" width="41.3167" height="10.9021" fill="#717B80"/>
<rect x="524.626" y="214.645" width="11.8417" height="41.7203" fill="#717B80"/>
<rect x="539.363" y="214.645" width="11.8417" height="41.7203" fill="#717B80"/>
<rect x="554.101" y="214.645" width="11.8417" height="41.7203" fill="#717B80"/>
<rect x="215.44" y="208.312" width="26.5796" height="10.9021" fill="#717B80"/>
<rect x="215.44" y="221.892" width="11.8417" height="34.4731" fill="#717B80"/>
<rect x="230.178" y="221.892" width="11.8417" height="34.4731" fill="#717B80"/>
<rect x="272.936" y="208.312" width="26.5796" height="10.9021" fill="#717B80"/>
<rect x="272.936" y="221.892" width="11.8417" height="34.4731" fill="#717B80"/>
<rect x="287.673" y="221.892" width="11.8417" height="34.4731" fill="#717B80"/>
<rect x="414.816" y="208.312" width="26.5796" height="10.9021" fill="#717B80"/>
<rect x="414.816" y="221.892" width="11.8417" height="34.4731" fill="#717B80"/>
<rect x="429.554" y="221.892" width="11.8417" height="34.4731" fill="#717B80"/>
<rect x="472.312" y="208.312" width="26.5796" height="10.9021" fill="#717B80"/>
<rect x="472.312" y="221.892" width="11.8417" height="34.4731" fill="#717B80"/>
<rect x="487.049" y="221.892" width="11.8417" height="34.4731" fill="#717B80"/>
<rect x="591.677" y="208.312" width="26.5796" height="10.9021" fill="#717B80"/>
<rect x="591.677" y="221.892" width="11.8417" height="34.4731" fill="#717B80"/>
<rect x="606.415" y="221.892" width="11.8417" height="34.4731" fill="#717B80"/>
<rect x="649.172" y="208.312" width="26.5796" height="10.9021" fill="#717B80"/>
<rect x="649.172" y="221.892" width="11.8417" height="34.4731" fill="#717B80"/>
<rect x="663.91" y="221.892" width="11.8417" height="34.4731" fill="#717B80"/>
<rect x="251.637" y="49.8979" width="12.3257" height="20.8364" fill="#8F5649"/>
<rect x="249.641" y="43.6392" width="16.3574" height="2.15057" fill="#183620"/>
<path d="M249.641 45.7896H265.998L263.963 49.8979H251.637L249.641 45.7896Z" fill="#8F5649"/>
<rect x="298.974" y="54.7461" width="12.3257" height="20.8364" fill="#8F5649"/>
<rect x="296.978" y="48.4873" width="16.3574" height="2.15057" fill="#8F5649"/>
<path d="M296.978 50.6377H313.336L311.3 54.746H298.974L296.978 50.6377Z" fill="#8F5649"/>
<rect x="352.399" y="5.30322" width="12.3257" height="20.8364" fill="#8F5649"/>
<rect x="350.403" y="-0.956055" width="16.3574" height="2.15057" fill="#8F5649"/>
<path d="M350.403 1.19482H366.76L364.725 5.30315H352.399L350.403 1.19482Z" fill="#8F5649"/>
<rect x="409.772" y="54.4419" width="12.3257" height="20.8364" fill="#8F5649"/>
<rect x="407.776" y="48.1831" width="16.3574" height="2.15057" fill="#8F5649"/>
<path d="M407.776 50.3335H424.134L422.098 54.4418H409.773L407.776 50.3335Z" fill="#8F5649"/>
<rect x="74.4448" y="49.8979" width="12.3257" height="20.8364" fill="#8F5649"/>
<rect x="72.4482" y="43.6392" width="16.3574" height="2.15057" fill="#183620"/>
<path d="M72.4482 45.7896H88.8058L86.7702 49.8979H74.4445L72.4482 45.7896Z" fill="#8F5649"/>
<rect x="26.1504" y="42.4106" width="15.9722" height="27.0008" fill="#8F5649"/>
<rect x="23.5635" y="34.3003" width="21.1967" height="2.78681" fill="#183620"/>
<path d="M23.5635 37.0869H44.7603L42.1225 42.4107H26.1503L23.5635 37.0869Z" fill="#8F5649"/>
<rect x="684.82" y="42.4106" width="15.9722" height="27.0008" fill="#8F5649"/>
<rect x="682.234" y="34.3003" width="21.1967" height="2.78681" fill="#183620"/>
<path d="M682.234 37.0869H703.431L700.793 42.4107H684.821L682.234 37.0869Z" fill="#8F5649"/>
<rect x="450.431" y="49.8979" width="12.3257" height="20.8364" fill="#8F5649"/>
<rect x="448.434" y="43.6392" width="16.3574" height="2.15057" fill="#183620"/>
<path d="M448.434 45.7896H464.792L462.756 49.8979H450.43L448.434 45.7896Z" fill="#8F5649"/>
<rect x="626.938" y="49.8979" width="12.3257" height="20.8364" fill="#8F5649"/>
<rect x="624.942" y="43.6392" width="16.3574" height="2.15057" fill="#183620"/>
<path d="M624.942 45.7896H641.3L639.264 49.8979H626.939L624.942 45.7896Z" fill="#8F5649"/>
<mask id="mask0_52_726" style="mask-type:alpha" maskUnits="userSpaceOnUse" x="303" y="-11" width="111" height="87">
<rect x="303.245" y="-10.3687" width="110.674" height="85.6469" fill="#D9D9D9"/>
</mask>
<g mask="url(#mask0_52_726)">
<ellipse cx="359.972" cy="67.326" rx="50.0536" ry="54.6424" fill="#183620"/>
<g filter="url(#filter1_i_52_726)">
<ellipse cx="359.972" cy="69.1471" rx="48.385" ry="52.8209" fill="#844E42"/>
</g>
<g filter="url(#filter2_i_52_726)">
<ellipse cx="360.528" cy="70.6745" rx="36.1497" ry="39.0583" fill="#844E42"/>
</g>
<rect x="350.196" y="43.9233" width="16.7712" height="31.3547" fill="#181E1E"/>
</g>
<rect x="299.859" y="41.1255" width="10.5943" height="7.36199" fill="#8F5649"/>
<rect x="297.525" y="32.5063" width="15.2629" height="8.61904" fill="#8F5649"/>
<path d="M305.157 27.6582L311.144 37.7587H299.17L305.157 27.6582Z" fill="#8F5649"/>
<rect x="410.639" y="40.8208" width="10.5943" height="7.36199" fill="#8F5649"/>
<rect x="408.304" y="32.2021" width="15.2629" height="8.61904" fill="#8F5649"/>
<path d="M415.936 27.3535L421.922 37.454H409.949L415.936 27.3535Z" fill="#8F5649"/>
<rect x="19.5845" y="74.7759" width="675.562" height="4.25018" fill="#D9D9D9"/>
<rect x="19.5845" y="181.036" width="675.562" height="4.25018" fill="#80483B"/>
<rect x="19.5845" y="96.3979" width="675.562" height="4.25018" fill="#80483B"/>
<rect x="19.5845" y="79.0264" width="675.562" height="4.25018" fill="#80483B"/>
<g filter="url(#filter3_i_52_726)">
<ellipse cx="42.6827" cy="173.643" rx="1.95956" ry="2.93934" fill="#82493C"/>
<rect x="40.7231" y="173.643" width="3.91912" height="5.87868" fill="#82493C"/>
<ellipse cx="48.7203" cy="173.643" rx="1.95956" ry="2.93934" fill="#82493C"/>
<rect x="46.7607" y="173.643" width="3.91912" height="5.87868" fill="#82493C"/>
<ellipse cx="54.7584" cy="173.643" rx="1.95956" ry="2.93934" fill="#82493C"/>
<rect x="52.7988" y="173.643" width="3.91912" height="5.87868" fill="#82493C"/>
<ellipse cx="60.7965" cy="173.643" rx="1.95956" ry="2.93934" fill="#82493C"/>
<rect x="58.8369" y="173.643" width="3.91912" height="5.87868" fill="#82493C"/>
<ellipse cx="100.442" cy="173.643" rx="1.95956" ry="2.93934" fill="#82493C"/>
<rect x="98.4824" y="173.643" width="3.91912" height="5.87868" fill="#82493C"/>
<ellipse cx="106.48" cy="173.643" rx="1.95956" ry="2.93934" fill="#82493C"/>
<rect x="104.521" y="173.643" width="3.91912" height="5.87868" fill="#82493C"/>
<ellipse cx="112.518" cy="173.643" rx="1.95956" ry="2.93934" fill="#82493C"/>
<rect x="110.559" y="173.643" width="3.91912" height="5.87868" fill="#82493C"/>
<ellipse cx="118.556" cy="173.643" rx="1.95956" ry="2.93934" fill="#82493C"/>
<rect x="116.596" y="173.643" width="3.91912" height="5.87868" fill="#82493C"/>
<ellipse cx="159.925" cy="173.643" rx="1.95956" ry="2.93934" fill="#82493C"/>
<rect x="157.965" y="173.643" width="3.91912" height="5.87868" fill="#82493C"/>
<ellipse cx="165.963" cy="173.643" rx="1.95956" ry="2.93934" fill="#82493C"/>
<rect x="164.003" y="173.643" width="3.91912" height="5.87868" fill="#82493C"/>
<ellipse cx="172.001" cy="173.643" rx="1.95956" ry="2.93934" fill="#82493C"/>
<rect x="170.042" y="173.643" width="3.91912" height="5.87868" fill="#82493C"/>
<ellipse cx="178.039" cy="173.643" rx="1.95956" ry="2.93934" fill="#82493C"/>
<rect x="176.079" y="173.643" width="3.91912" height="5.87868" fill="#82493C"/>
<ellipse cx="219.673" cy="173.643" rx="1.95956" ry="2.93934" fill="#82493C"/>
<rect x="217.713" y="173.643" width="3.91912" height="5.87868" fill="#82493C"/>
<ellipse cx="225.711" cy="173.643" rx="1.95956" ry="2.93934" fill="#82493C"/>
<rect x="223.751" y="173.643" width="3.91912" height="5.87868" fill="#82493C"/>
<ellipse cx="231.749" cy="173.643" rx="1.95956" ry="2.93934" fill="#82493C"/>
<rect x="229.79" y="173.643" width="3.91912" height="5.87868" fill="#82493C"/>
<ellipse cx="237.787" cy="173.643" rx="1.95956" ry="2.93934" fill="#82493C"/>
<rect x="235.827" y="173.643" width="3.91912" height="5.87868" fill="#82493C"/>
<ellipse cx="277.432" cy="173.643" rx="1.95956" ry="2.93934" fill="#82493C"/>
<rect x="275.473" y="173.643" width="3.91912" height="5.87868" fill="#82493C"/>
<ellipse cx="283.47" cy="173.643" rx="1.95956" ry="2.93934" fill="#82493C"/>
<rect x="281.51" y="173.643" width="3.91912" height="5.87868" fill="#82493C"/>
<ellipse cx="289.508" cy="173.643" rx="1.95956" ry="2.93934" fill="#82493C"/>
<rect x="287.548" y="173.643" width="3.91912" height="5.87868" fill="#82493C"/>
<ellipse cx="295.546" cy="173.643" rx="1.95956" ry="2.93934" fill="#82493C"/>
<rect x="293.586" y="173.643" width="3.91912" height="5.87868" fill="#82493C"/>
<ellipse cx="348.34" cy="173.643" rx="1.95956" ry="2.93934" fill="#82493C"/>
<rect x="346.381" y="173.643" width="3.91912" height="5.87868" fill="#82493C"/>
<ellipse cx="354.379" cy="173.643" rx="1.95956" ry="2.93934" fill="#82493C"/>
<rect x="352.419" y="173.643" width="3.91912" height="5.87868" fill="#82493C"/>
<ellipse cx="360.416" cy="173.643" rx="1.95956" ry="2.93934" fill="#82493C"/>
<rect x="358.457" y="173.643" width="3.91912" height="5.87868" fill="#82493C"/>
<ellipse cx="366.454" cy="173.643" rx="1.95956" ry="2.93934" fill="#82493C"/>
<rect x="364.495" y="173.643" width="3.91912" height="5.87868" fill="#82493C"/>
<ellipse cx="419.248" cy="173.643" rx="1.95956" ry="2.93934" fill="#82493C"/>
<rect x="417.289" y="173.643" width="3.91912" height="5.87868" fill="#82493C"/>
<ellipse cx="425.286" cy="173.643" rx="1.95956" ry="2.93934" fill="#82493C"/>
<rect x="423.327" y="173.643" width="3.91912" height="5.87868" fill="#82493C"/>
<ellipse cx="431.324" cy="173.643" rx="1.95956" ry="2.93934" fill="#82493C"/>
<rect x="429.365" y="173.643" width="3.91912" height="5.87868" fill="#82493C"/>
<ellipse cx="437.362" cy="173.643" rx="1.95956" ry="2.93934" fill="#82493C"/>
<rect x="435.402" y="173.643" width="3.91912" height="5.87868" fill="#82493C"/>
<ellipse cx="476.216" cy="173.643" rx="1.95956" ry="2.93934" fill="#82493C"/>
<rect x="474.256" y="173.643" width="3.91912" height="5.87868" fill="#82493C"/>
<ellipse cx="482.254" cy="173.643" rx="1.95956" ry="2.93934" fill="#82493C"/>
<rect x="480.294" y="173.643" width="3.91912" height="5.87868" fill="#82493C"/>
<ellipse cx="488.292" cy="173.643" rx="1.95956" ry="2.93934" fill="#82493C"/>
<rect x="486.333" y="173.643" width="3.91912" height="5.87868" fill="#82493C"/>
<ellipse cx="494.33" cy="173.643" rx="1.95956" ry="2.93934" fill="#82493C"/>
<rect x="492.37" y="173.643" width="3.91912" height="5.87868" fill="#82493C"/>
<ellipse cx="536.491" cy="173.643" rx="1.95956" ry="2.93934" fill="#82493C"/>
<rect x="534.531" y="173.643" width="3.91912" height="5.87868" fill="#82493C"/>
<ellipse cx="542.529" cy="173.643" rx="1.95956" ry="2.93934" fill="#82493C"/>
<rect x="540.569" y="173.643" width="3.91912" height="5.87868" fill="#82493C"/>
<ellipse cx="548.567" cy="173.643" rx="1.95956" ry="2.93934" fill="#82493C"/>
<rect x="546.607" y="173.643" width="3.91912" height="5.87868" fill="#82493C"/>
<ellipse cx="554.605" cy="173.643" rx="1.95956" ry="2.93934" fill="#82493C"/>
<rect x="552.645" y="173.643" width="3.91912" height="5.87868" fill="#82493C"/>
<ellipse cx="596.239" cy="173.643" rx="1.95956" ry="2.93934" fill="#82493C"/>
<rect x="594.279" y="173.643" width="3.91912" height="5.87868" fill="#82493C"/>
<ellipse cx="602.277" cy="173.643" rx="1.95956" ry="2.93934" fill="#82493C"/>
<rect x="600.317" y="173.643" width="3.91912" height="5.87868" fill="#82493C"/>
<ellipse cx="608.315" cy="173.643" rx="1.95956" ry="2.93934" fill="#82493C"/>
<rect x="606.355" y="173.643" width="3.91912" height="5.87868" fill="#82493C"/>
<ellipse cx="614.353" cy="173.643" rx="1.95956" ry="2.93934" fill="#82493C"/>
<rect x="612.393" y="173.643" width="3.91912" height="5.87868" fill="#82493C"/>
<ellipse cx="653.734" cy="173.643" rx="1.95956" ry="2.93934" fill="#82493C"/>
<rect x="651.774" y="173.643" width="3.91912" height="5.87868" fill="#82493C"/>
<ellipse cx="659.772" cy="173.643" rx="1.95956" ry="2.93934" fill="#82493C"/>
<rect x="657.812" y="173.643" width="3.91912" height="5.87868" fill="#82493C"/>
<ellipse cx="665.81" cy="173.643" rx="1.95956" ry="2.93934" fill="#82493C"/>
<rect x="663.851" y="173.643" width="3.91912" height="5.87868" fill="#82493C"/>
<ellipse cx="671.848" cy="173.643" rx="1.95956" ry="2.93934" fill="#82493C"/>
<rect x="669.888" y="173.643" width="3.91912" height="5.87868" fill="#82493C"/>
</g>
<rect x="19.5845" y="82.1309" width="3.97878" height="8.42373" fill="#80483B"/>
<rect x="27.9795" y="82.1309" width="3.97878" height="8.42373" fill="#80483B"/>
<rect x="36.3745" y="82.1309" width="3.97878" height="8.42373" fill="#80483B"/>
<rect x="44.769" y="82.1309" width="3.97878" height="8.42373" fill="#80483B"/>
<rect x="53.1636" y="82.1309" width="3.97878" height="8.42373" fill="#80483B"/>
<rect x="61.5586" y="82.1309" width="3.97878" height="8.42373" fill="#80483B"/>
<rect x="120.322" y="82.1309" width="3.97878" height="8.42373" fill="#80483B"/>
<rect x="128.717" y="82.1309" width="3.97878" height="8.42373" fill="#80483B"/>
<rect x="137.112" y="82.1309" width="3.97878" height="8.42373" fill="#80483B"/>
<rect x="145.506" y="82.1309" width="3.97878" height="8.42373" fill="#80483B"/>
<rect x="153.901" y="82.1309" width="3.97878" height="8.42373" fill="#80483B"/>
<rect x="162.296" y="82.1309" width="3.97878" height="8.42373" fill="#80483B"/>
<rect x="69.9536" y="82.1309" width="3.97878" height="8.42373" fill="#80483B"/>
<rect x="78.3481" y="82.1309" width="3.97878" height="8.42373" fill="#80483B"/>
<rect x="86.7432" y="82.1309" width="3.97878" height="8.42373" fill="#80483B"/>
<rect x="95.1377" y="82.1309" width="3.97878" height="8.42373" fill="#80483B"/>
<rect x="103.533" y="82.1309" width="3.97878" height="8.42373" fill="#80483B"/>
<rect x="111.927" y="82.1309" width="3.97878" height="8.42373" fill="#80483B"/>
<rect x="170.691" y="82.1309" width="3.97878" height="8.42373" fill="#80483B"/>
<rect x="179.086" y="82.1309" width="3.97878" height="8.42373" fill="#80483B"/>
<rect x="187.48" y="82.1309" width="3.97878" height="8.42373" fill="#80483B"/>
<rect x="195.875" y="82.1309" width="3.97878" height="8.42373" fill="#80483B"/>
<rect x="204.27" y="82.1309" width="3.97878" height="8.42373" fill="#80483B"/>
<rect x="212.665" y="82.1309" width="3.97878" height="8.42373" fill="#80483B"/>
<rect x="271.429" y="82.1309" width="3.97878" height="8.42373" fill="#80483B"/>
<rect x="279.823" y="82.1309" width="3.97878" height="8.42373" fill="#80483B"/>
<rect x="288.218" y="82.1309" width="3.97878" height="8.42373" fill="#80483B"/>
<rect x="296.613" y="82.1309" width="3.97878" height="8.42373" fill="#80483B"/>
<rect x="305.008" y="82.1309" width="3.97878" height="8.42373" fill="#80483B"/>
<rect x="313.403" y="82.1309" width="3.97878" height="8.42373" fill="#80483B"/>
<rect x="221.06" y="82.1309" width="3.97878" height="8.42373" fill="#80483B"/>
<rect x="229.455" y="82.1309" width="3.97878" height="8.42373" fill="#80483B"/>
<rect x="237.849" y="82.1309" width="3.97878" height="8.42373" fill="#80483B"/>
<rect x="246.244" y="82.1309" width="3.97878" height="8.42373" fill="#80483B"/>
<rect x="254.639" y="82.1309" width="3.97878" height="8.42373" fill="#80483B"/>
<rect x="263.034" y="82.1309" width="3.97878" height="8.42373" fill="#80483B"/>
<rect x="321.797" y="82.1309" width="3.97878" height="8.42373" fill="#80483B"/>
<rect x="330.192" y="82.1309" width="3.97878" height="8.42373" fill="#80483B"/>
<rect x="338.587" y="82.1309" width="3.97878" height="8.42373" fill="#80483B"/>
<rect x="346.982" y="82.1309" width="3.97878" height="8.42373" fill="#80483B"/>
<rect x="355.376" y="82.1309" width="3.97878" height="8.42373" fill="#80483B"/>
<rect x="363.771" y="82.1309" width="3.97878" height="8.42373" fill="#80483B"/>
<rect x="422.535" y="82.1309" width="3.97878" height="8.42373" fill="#80483B"/>
<rect x="430.93" y="82.1309" width="3.97878" height="8.42373" fill="#80483B"/>
<rect x="439.325" y="82.1309" width="3.97878" height="8.42373" fill="#80483B"/>
<rect x="447.719" y="82.1309" width="3.97878" height="8.42373" fill="#80483B"/>
<rect x="456.114" y="82.1309" width="3.97878" height="8.42373" fill="#80483B"/>
<rect x="464.509" y="82.1309" width="3.97878" height="8.42373" fill="#80483B"/>
<rect x="372.166" y="82.1309" width="3.97878" height="8.42373" fill="#80483B"/>
<rect x="380.561" y="82.1309" width="3.97878" height="8.42373" fill="#80483B"/>
<rect x="388.956" y="82.1309" width="3.97878" height="8.42373" fill="#80483B"/>
<rect x="397.351" y="82.1309" width="3.97878" height="8.42373" fill="#80483B"/>
<rect x="405.746" y="82.1309" width="3.97878" height="8.42373" fill="#80483B"/>
<rect x="414.14" y="82.1309" width="3.97878" height="8.42373" fill="#80483B"/>
<rect x="472.903" y="82.1309" width="3.97878" height="8.42373" fill="#80483B"/>
<rect x="481.298" y="82.1309" width="3.97878" height="8.42373" fill="#80483B"/>
<rect x="489.693" y="82.1309" width="3.97878" height="8.42373" fill="#80483B"/>
<rect x="498.088" y="82.1309" width="3.97878" height="8.42373" fill="#80483B"/>
<rect x="506.482" y="82.1309" width="3.97878" height="8.42373" fill="#80483B"/>
<rect x="514.877" y="82.1309" width="3.97878" height="8.42373" fill="#80483B"/>
<rect x="573.641" y="82.1309" width="3.97878" height="8.42373" fill="#80483B"/>
<rect x="582.036" y="82.1309" width="3.97878" height="8.42373" fill="#80483B"/>
<rect x="590.431" y="82.1309" width="3.97878" height="8.42373" fill="#80483B"/>
<rect x="598.825" y="82.1309" width="3.97878" height="8.42373" fill="#80483B"/>
<rect x="607.22" y="82.1309" width="3.97878" height="8.42373" fill="#80483B"/>
<rect x="615.615" y="82.1309" width="3.97878" height="8.42373" fill="#80483B"/>
<rect x="523.272" y="82.1309" width="3.97878" height="8.42373" fill="#80483B"/>
<rect x="531.667" y="82.1309" width="3.97878" height="8.42373" fill="#80483B"/>
<rect x="540.062" y="82.1309" width="3.97878" height="8.42373" fill="#80483B"/>
<rect x="548.457" y="82.1309" width="3.97878" height="8.42373" fill="#80483B"/>
<rect x="556.852" y="82.1309" width="3.97878" height="8.42373" fill="#80483B"/>
<rect x="565.246" y="82.1309" width="3.97878" height="8.42373" fill="#80483B"/>
<rect x="632.405" y="82.1309" width="3.97878" height="8.42373" fill="#80483B"/>
<rect x="640.8" y="82.1309" width="3.97878" height="8.42373" fill="#80483B"/>
<rect x="649.194" y="82.1309" width="3.97878" height="8.42373" fill="#80483B"/>
<rect x="657.589" y="82.1309" width="3.97878" height="8.42373" fill="#80483B"/>
<rect x="665.984" y="82.1309" width="3.97878" height="8.42373" fill="#80483B"/>
<rect x="674.379" y="82.1309" width="3.97878" height="8.42373" fill="#80483B"/>
<rect x="682.773" y="82.1309" width="3.97878" height="8.42373" fill="#80483B"/>
<rect x="691.168" y="82.1309" width="3.97878" height="8.42373" fill="#80483B"/>
<rect x="624.01" y="82.1309" width="3.97878" height="8.42373" fill="#80483B"/>
<g filter="url(#filter4_di_52_726)">
<rect x="309.63" y="227.404" width="95.0066" height="62.2187" fill="#C3BCB2"/>
</g>
<rect x="333.754" y="197.119" width="46.7584" height="63.3838" fill="#D9D9D9"/>
<rect x="336.708" y="200.821" width="41.3167" height="10.9021" fill="#717B80"/>
<rect x="336.708" y="214.645" width="11.8417" height="41.7203" fill="#717B80"/>
<rect x="351.445" y="214.645" width="11.8417" height="41.7203" fill="#717B80"/>
<rect x="366.183" y="214.645" width="11.8417" height="41.7203" fill="#717B80"/>
<path d="M512.04 72.1948V262.724L541.856 289.631" stroke="#183620" stroke-width="6"/>
<path d="M2.85889 69.6885V85.0472L21.4669 100.997V280.875L14.0827 288.554" stroke="#183620" stroke-width="6"/>
<path d="M709.97 71.0835L690.968 90.0865V277.924L699.373 287.791" stroke="#183620" stroke-width="6"/>
<path d="M273.913 70.1162L257.737 85.2137V276.628L247.492 286.333" stroke="#183620" stroke-width="6"/>
</g>
<defs>
<filter id="filter0_di_52_726" x="309.63" y="75.0264" width="103.006" height="218.596" filterUnits="userSpaceOnUse" color-interpolation-filters="sRGB">
<feFlood flood-opacity="0" result="BackgroundImageFix"/>
<feColorMatrix in="SourceAlpha" type="matrix" values="0 0 0 0 0 0 0 0 0 0 0 0 0 0 0 0 0 0 127 0" result="hardAlpha"/>
<feOffset dx="4"/>
<feGaussianBlur stdDeviation="2"/>
<feComposite in2="hardAlpha" operator="out"/>
<feColorMatrix type="matrix" values="0 0 0 0 0 0 0 0 0 0 0 0 0 0 0 0 0 0 0.25 0"/>
<feBlend mode="normal" in2="BackgroundImageFix" result="effect1_dropShadow_52_726"/>
<feBlend mode="normal" in="SourceGraphic" in2="effect1_dropShadow_52_726" result="shape"/>
<feColorMatrix in="SourceAlpha" type="matrix" values="0 0 0 0 0 0 0 0 0 0 0 0 0 0 0 0 0 0 127 0" result="hardAlpha"/>
<feOffset dx="4"/>
<feGaussianBlur stdDeviation="2"/>
<feComposite in2="hardAlpha" operator="arithmetic" k2="-1" k3="1"/>
<feColorMatrix type="matrix" values="0 0 0 0 0 0 0 0 0 0 0 0 0 0 0 0 0 0 0.25 0"/>
<feBlend mode="normal" in2="shape" result="effect2_innerShadow_52_726"/>
</filter>
<filter id="filter1_i_52_726" x="311.587" y="16.3262" width="96.77" height="107.642" filterUnits="userSpaceOnUse" color-interpolation-filters="sRGB">
<feFlood flood-opacity="0" result="BackgroundImageFix"/>
<feBlend mode="normal" in="SourceGraphic" in2="BackgroundImageFix" result="shape"/>
<feColorMatrix in="SourceAlpha" type="matrix" values="0 0 0 0 0 0 0 0 0 0 0 0 0 0 0 0 0 0 127 0" result="hardAlpha"/>
<feOffset dy="2"/>
<feGaussianBlur stdDeviation="2"/>
<feComposite in2="hardAlpha" operator="arithmetic" k2="-1" k3="1"/>
<feColorMatrix type="matrix" values="0 0 0 0 0 0 0 0 0 0 0 0 0 0 0 0 0 0 0.5 0"/>
<feBlend mode="normal" in2="shape" result="effect1_innerShadow_52_726"/>
</filter>
<filter id="filter2_i_52_726" x="324.378" y="31.6162" width="72.2993" height="80.1167" filterUnits="userSpaceOnUse" color-interpolation-filters="sRGB">
<feFlood flood-opacity="0" result="BackgroundImageFix"/>
<feBlend mode="normal" in="SourceGraphic" in2="BackgroundImageFix" result="shape"/>
<feColorMatrix in="SourceAlpha" type="matrix" values="0 0 0 0 0 0 0 0 0 0 0 0 0 0 0 0 0 0 127 0" result="hardAlpha"/>
<feOffset dy="2"/>
<feGaussianBlur stdDeviation="2"/>
<feComposite in2="hardAlpha" operator="arithmetic" k2="-1" k3="1"/>
<feColorMatrix type="matrix" values="0 0 0 0 0 0 0 0 0 0 0 0 0 0 0 0 0 0 0.5 0"/>
<feBlend mode="normal" in2="shape" result="effect1_innerShadow_52_726"/>
</filter>
<filter id="filter3_i_52_726" x="40.7231" y="170.704" width="633.084" height="12.8184" filterUnits="userSpaceOnUse" color-interpolation-filters="sRGB">
<feFlood flood-opacity="0" result="BackgroundImageFix"/>
<feBlend mode="normal" in="SourceGraphic" in2="BackgroundImageFix" result="shape"/>
<feColorMatrix in="SourceAlpha" type="matrix" values="0 0 0 0 0 0 0 0 0 0 0 0 0 0 0 0 0 0 127 0" result="hardAlpha"/>
<feOffset dy="4"/>
<feGaussianBlur stdDeviation="2"/>
<feComposite in2="hardAlpha" operator="arithmetic" k2="-1" k3="1"/>
<feColorMatrix type="matrix" values="0 0 0 0 0 0 0 0 0 0 0 0 0 0 0 0 0 0 0.1 0"/>
<feBlend mode="normal" in2="shape" result="effect1_innerShadow_52_726"/>
</filter>
<filter id="filter4_di_52_726" x="309.63" y="223.404" width="103.006" height="70.2188" filterUnits="userSpaceOnUse" color-interpolation-filters="sRGB">
<feFlood flood-opacity="0" result="BackgroundImageFix"/>
<feColorMatrix in="SourceAlpha" type="matrix" values="0 0 0 0 0 0 0 0 0 0 0 0 0 0 0 0 0 0 127 0" result="hardAlpha"/>
<feOffset dx="4"/>
<feGaussianBlur stdDeviation="2"/>
<feComposite in2="hardAlpha" operator="out"/>
<feColorMatrix type="matrix" values="0 0 0 0 0 0 0 0 0 0 0 0 0 0 0 0 0 0 0.25 0"/>
<feBlend mode="normal" in2="BackgroundImageFix" result="effect1_dropShadow_52_726"/>
<feBlend mode="normal" in="SourceGraphic" in2="effect1_dropShadow_52_726" result="shape"/>
<feColorMatrix in="SourceAlpha" type="matrix" values="0 0 0 0 0 0 0 0 0 0 0 0 0 0 0 0 0 0 127 0" result="hardAlpha"/>
<feOffset dx="4"/>
<feGaussianBlur stdDeviation="2"/>
<feComposite in2="hardAlpha" operator="arithmetic" k2="-1" k3="1"/>
<feColorMatrix type="matrix" values="0 0 0 0 0 0 0 0 0 0 0 0 0 0 0 0 0 0 0.25 0"/>
<feBlend mode="normal" in2="shape" result="effect2_innerShadow_52_726"/>
</filter>
<clipPath id="clip0_52_726">
<rect width="715" height="295" fill="white"/>
</clipPath>
</defs>
</svg>
