<svg width="842" height="300" viewBox="0 0 842 300" fill="none" xmlns="http://www.w3.org/2000/svg">
<g clip-path="url(#clip0_49_16)">
<rect width="841" height="300" transform="translate(0.771484)" fill="white"/>
<rect x="0.873047" width="840.898" height="209" fill="#CBBD83"/>
<rect x="0.873047" y="209" width="840.898" height="91.0004" fill="#C0C5C8"/>
<rect x="0.873047" y="280.917" width="840.898" height="19.0825" fill="#4D2418"/>
<mask id="mask0_49_16" style="mask-type:alpha" maskUnits="userSpaceOnUse" x="20" y="119" width="40" height="64">
<rect x="20.3176" y="119.943" width="38.6991" height="62.2114" fill="#D9D9D9"/>
</mask>
<g mask="url(#mask0_49_16)">
<ellipse cx="39.6671" cy="164.418" rx="46.392" ry="39.7551" fill="#D3D9D3"/>
<rect x="20.3176" y="137.914" width="38.6991" height="47.9802" fill="#D3D9D3"/>
</g>
<mask id="mask1_49_16" style="mask-type:alpha" maskUnits="userSpaceOnUse" x="24" y="126" width="32" height="54">
<rect x="24.0063" y="126.479" width="31.3211" height="52.5425" fill="#181E1E"/>
</mask>
<g mask="url(#mask1_49_16)">
<ellipse cx="39.667" cy="163.007" rx="37.5474" ry="32.652" fill="#181E1E"/>
<rect x="24.0063" y="141.239" width="31.3211" height="39.4075" fill="#181E1E"/>
</g>
<rect x="22.093" y="144.046" width="34.4042" height="1.67371" fill="#D3D9D3"/>
<rect x="40.1321" y="127.681" width="51.3406" height="1.67371" transform="rotate(90 40.1321 127.681)" fill="#D3D9D3"/>
<mask id="mask2_49_16" style="mask-type:alpha" maskUnits="userSpaceOnUse" x="84" y="119" width="39" height="64">
<rect x="84.106" y="119.943" width="38.6991" height="62.2114" fill="#D9D9D9"/>
</mask>
<g mask="url(#mask2_49_16)">
<ellipse cx="103.456" cy="164.418" rx="46.392" ry="39.7551" fill="#D3D9D3"/>
<rect x="84.106" y="137.914" width="38.6991" height="47.9802" fill="#D3D9D3"/>
</g>
<mask id="mask3_49_16" style="mask-type:alpha" maskUnits="userSpaceOnUse" x="87" y="126" width="33" height="54">
<rect x="87.7952" y="126.479" width="31.3211" height="52.5425" fill="#181E1E"/>
</mask>
<g mask="url(#mask3_49_16)">
<ellipse cx="103.456" cy="163.007" rx="37.5474" ry="32.652" fill="#181E1E"/>
<rect x="87.7952" y="141.239" width="31.3211" height="39.4075" fill="#181E1E"/>
</g>
<rect x="85.8818" y="144.046" width="34.4042" height="1.67371" fill="#D3D9D3"/>
<rect x="103.921" y="127.681" width="51.3406" height="1.67371" transform="rotate(90 103.921 127.681)" fill="#D3D9D3"/>
<mask id="mask4_49_16" style="mask-type:alpha" maskUnits="userSpaceOnUse" x="147" y="119" width="40" height="64">
<rect x="147.896" y="119.943" width="38.6991" height="62.2114" fill="#D9D9D9"/>
</mask>
<g mask="url(#mask4_49_16)">
<ellipse cx="167.245" cy="164.418" rx="46.392" ry="39.7551" fill="#D3D9D3"/>
<rect x="147.896" y="137.914" width="38.6991" height="47.9802" fill="#D3D9D3"/>
</g>
<mask id="mask5_49_16" style="mask-type:alpha" maskUnits="userSpaceOnUse" x="151" y="126" width="32" height="54">
<rect x="151.585" y="126.479" width="31.3211" height="52.5425" fill="#181E1E"/>
</mask>
<g mask="url(#mask5_49_16)">
<ellipse cx="167.245" cy="163.007" rx="37.5474" ry="32.652" fill="#181E1E"/>
<rect x="151.585" y="141.239" width="31.3211" height="39.4075" fill="#181E1E"/>
</g>
<rect x="149.671" y="144.046" width="34.4042" height="1.67371" fill="#D3D9D3"/>
<rect x="167.71" y="127.681" width="51.3406" height="1.67371" transform="rotate(90 167.71 127.681)" fill="#D3D9D3"/>
<mask id="mask6_49_16" style="mask-type:alpha" maskUnits="userSpaceOnUse" x="211" y="119" width="40" height="64">
<rect x="211.684" y="119.943" width="38.6991" height="62.2114" fill="#D9D9D9"/>
</mask>
<g mask="url(#mask6_49_16)">
<ellipse cx="231.034" cy="164.418" rx="46.392" ry="39.7551" fill="#D3D9D3"/>
<rect x="211.685" y="137.914" width="38.6991" height="47.9802" fill="#D3D9D3"/>
</g>
<mask id="mask7_49_16" style="mask-type:alpha" maskUnits="userSpaceOnUse" x="215" y="126" width="32" height="54">
<rect x="215.374" y="126.479" width="31.3211" height="52.5425" fill="#181E1E"/>
</mask>
<g mask="url(#mask7_49_16)">
<ellipse cx="231.034" cy="163.007" rx="37.5474" ry="32.652" fill="#181E1E"/>
<rect x="215.373" y="141.239" width="31.3211" height="39.4075" fill="#181E1E"/>
</g>
<rect x="213.46" y="144.046" width="34.4042" height="1.67371" fill="#D3D9D3"/>
<rect x="231.499" y="127.681" width="51.3406" height="1.67371" transform="rotate(90 231.499 127.681)" fill="#D3D9D3"/>
<mask id="mask8_49_16" style="mask-type:alpha" maskUnits="userSpaceOnUse" x="275" y="119" width="40" height="64">
<rect x="275.474" y="119.943" width="38.6991" height="62.2114" fill="#D9D9D9"/>
</mask>
<g mask="url(#mask8_49_16)">
<ellipse cx="294.823" cy="164.418" rx="46.392" ry="39.7551" fill="#D3D9D3"/>
<rect x="275.474" y="137.914" width="38.6991" height="47.9802" fill="#D3D9D3"/>
</g>
<mask id="mask9_49_16" style="mask-type:alpha" maskUnits="userSpaceOnUse" x="279" y="126" width="32" height="54">
<rect x="279.163" y="126.479" width="31.3211" height="52.5425" fill="#181E1E"/>
</mask>
<g mask="url(#mask9_49_16)">
<ellipse cx="294.823" cy="163.007" rx="37.5474" ry="32.652" fill="#181E1E"/>
<rect x="279.163" y="141.239" width="31.3211" height="39.4075" fill="#181E1E"/>
</g>
<rect x="277.249" y="144.046" width="34.4042" height="1.67371" fill="#D3D9D3"/>
<rect x="295.288" y="127.681" width="51.3406" height="1.67371" transform="rotate(90 295.288 127.681)" fill="#D3D9D3"/>
<mask id="mask10_49_16" style="mask-type:alpha" maskUnits="userSpaceOnUse" x="339" y="119" width="39" height="64">
<rect x="339.262" y="119.943" width="38.6991" height="62.2114" fill="#D9D9D9"/>
</mask>
<g mask="url(#mask10_49_16)">
<ellipse cx="358.612" cy="164.418" rx="46.392" ry="39.7551" fill="#D3D9D3"/>
<rect x="339.262" y="137.914" width="38.6991" height="47.9802" fill="#D3D9D3"/>
</g>
<mask id="mask11_49_16" style="mask-type:alpha" maskUnits="userSpaceOnUse" x="342" y="126" width="33" height="54">
<rect x="342.951" y="126.479" width="31.3211" height="52.5425" fill="#181E1E"/>
</mask>
<g mask="url(#mask11_49_16)">
<ellipse cx="358.612" cy="163.007" rx="37.5474" ry="32.652" fill="#181E1E"/>
<rect x="342.951" y="141.239" width="31.3211" height="39.4075" fill="#181E1E"/>
</g>
<rect x="341.038" y="144.046" width="34.4042" height="1.67371" fill="#D3D9D3"/>
<rect x="359.077" y="127.681" width="51.3406" height="1.67371" transform="rotate(90 359.077 127.681)" fill="#D3D9D3"/>
<mask id="mask12_49_16" style="mask-type:alpha" maskUnits="userSpaceOnUse" x="403" y="119" width="39" height="64">
<rect x="403.052" y="119.943" width="38.6991" height="62.2114" fill="#D9D9D9"/>
</mask>
<g mask="url(#mask12_49_16)">
<ellipse cx="422.401" cy="164.418" rx="46.392" ry="39.7551" fill="#D3D9D3"/>
<rect x="403.052" y="137.914" width="38.6991" height="47.9802" fill="#D3D9D3"/>
</g>
<mask id="mask13_49_16" style="mask-type:alpha" maskUnits="userSpaceOnUse" x="406" y="126" width="33" height="54">
<rect x="406.741" y="126.479" width="31.3211" height="52.5425" fill="#181E1E"/>
</mask>
<g mask="url(#mask13_49_16)">
<ellipse cx="422.401" cy="163.007" rx="37.5474" ry="32.652" fill="#181E1E"/>
<rect x="406.74" y="141.239" width="31.3211" height="39.4075" fill="#181E1E"/>
</g>
<rect x="404.827" y="144.046" width="34.4042" height="1.67371" fill="#D3D9D3"/>
<rect x="422.866" y="127.681" width="51.3406" height="1.67371" transform="rotate(90 422.866 127.681)" fill="#D3D9D3"/>
<mask id="mask14_49_16" style="mask-type:alpha" maskUnits="userSpaceOnUse" x="466" y="119" width="40" height="64">
<rect x="466.841" y="119.943" width="38.6991" height="62.2114" fill="#D9D9D9"/>
</mask>
<g mask="url(#mask14_49_16)">
<ellipse cx="486.19" cy="164.418" rx="46.392" ry="39.7551" fill="#D3D9D3"/>
<rect x="466.841" y="137.914" width="38.6991" height="47.9802" fill="#D3D9D3"/>
</g>
<mask id="mask15_49_16" style="mask-type:alpha" maskUnits="userSpaceOnUse" x="470" y="126" width="32" height="54">
<rect x="470.53" y="126.479" width="31.3211" height="52.5425" fill="#181E1E"/>
</mask>
<g mask="url(#mask15_49_16)">
<ellipse cx="486.19" cy="163.007" rx="37.5474" ry="32.652" fill="#181E1E"/>
<rect x="470.53" y="141.239" width="31.3211" height="39.4075" fill="#181E1E"/>
</g>
<rect x="468.616" y="144.046" width="34.4042" height="1.67371" fill="#D3D9D3"/>
<rect x="486.655" y="127.681" width="51.3406" height="1.67371" transform="rotate(90 486.655 127.681)" fill="#D3D9D3"/>
<mask id="mask16_49_16" style="mask-type:alpha" maskUnits="userSpaceOnUse" x="530" y="119" width="40" height="64">
<rect x="530.629" y="119.943" width="38.6991" height="62.2114" fill="#D9D9D9"/>
</mask>
<g mask="url(#mask16_49_16)">
<ellipse cx="549.979" cy="164.418" rx="46.392" ry="39.7551" fill="#D3D9D3"/>
<rect x="530.629" y="137.914" width="38.6991" height="47.9802" fill="#D3D9D3"/>
</g>
<mask id="mask17_49_16" style="mask-type:alpha" maskUnits="userSpaceOnUse" x="534" y="126" width="32" height="54">
<rect x="534.318" y="126.479" width="31.3211" height="52.5425" fill="#181E1E"/>
</mask>
<g mask="url(#mask17_49_16)">
<ellipse cx="549.979" cy="163.007" rx="37.5474" ry="32.652" fill="#181E1E"/>
<rect x="534.318" y="141.239" width="31.3211" height="39.4075" fill="#181E1E"/>
</g>
<rect x="532.405" y="144.046" width="34.4042" height="1.67371" fill="#D3D9D3"/>
<rect x="550.444" y="127.681" width="51.3406" height="1.67371" transform="rotate(90 550.444 127.681)" fill="#D3D9D3"/>
<mask id="mask18_49_16" style="mask-type:alpha" maskUnits="userSpaceOnUse" x="594" y="119" width="40" height="64">
<rect x="594.418" y="119.943" width="38.6991" height="62.2114" fill="#D9D9D9"/>
</mask>
<g mask="url(#mask18_49_16)">
<ellipse cx="613.768" cy="164.418" rx="46.392" ry="39.7551" fill="#D3D9D3"/>
<rect x="594.418" y="137.914" width="38.6991" height="47.9802" fill="#D3D9D3"/>
</g>
<mask id="mask19_49_16" style="mask-type:alpha" maskUnits="userSpaceOnUse" x="598" y="126" width="32" height="54">
<rect x="598.107" y="126.479" width="31.3211" height="52.5425" fill="#181E1E"/>
</mask>
<g mask="url(#mask19_49_16)">
<ellipse cx="613.768" cy="163.007" rx="37.5474" ry="32.652" fill="#181E1E"/>
<rect x="598.107" y="141.239" width="31.3211" height="39.4075" fill="#181E1E"/>
</g>
<rect x="596.194" y="144.046" width="34.4042" height="1.67371" fill="#D3D9D3"/>
<rect x="614.233" y="127.681" width="51.3406" height="1.67371" transform="rotate(90 614.233 127.681)" fill="#D3D9D3"/>
<mask id="mask20_49_16" style="mask-type:alpha" maskUnits="userSpaceOnUse" x="658" y="119" width="39" height="64">
<rect x="658.208" y="119.943" width="38.6991" height="62.2114" fill="#D9D9D9"/>
</mask>
<g mask="url(#mask20_49_16)">
<ellipse cx="677.557" cy="164.418" rx="46.392" ry="39.7551" fill="#D3D9D3"/>
<rect x="658.208" y="137.914" width="38.6991" height="47.9802" fill="#D3D9D3"/>
</g>
<mask id="mask21_49_16" style="mask-type:alpha" maskUnits="userSpaceOnUse" x="661" y="126" width="33" height="54">
<rect x="661.896" y="126.479" width="31.3211" height="52.5425" fill="#181E1E"/>
</mask>
<g mask="url(#mask21_49_16)">
<ellipse cx="677.557" cy="163.007" rx="37.5474" ry="32.652" fill="#181E1E"/>
<rect x="661.896" y="141.239" width="31.3211" height="39.4075" fill="#181E1E"/>
</g>
<rect x="659.983" y="144.046" width="34.4042" height="1.67371" fill="#D3D9D3"/>
<rect x="678.022" y="127.681" width="51.3406" height="1.67371" transform="rotate(90 678.022 127.681)" fill="#D3D9D3"/>
<mask id="mask22_49_16" style="mask-type:alpha" maskUnits="userSpaceOnUse" x="721" y="119" width="40" height="64">
<rect x="721.997" y="119.943" width="38.6991" height="62.2114" fill="#D9D9D9"/>
</mask>
<g mask="url(#mask22_49_16)">
<ellipse cx="741.346" cy="164.418" rx="46.392" ry="39.7551" fill="#D3D9D3"/>
<rect x="721.997" y="137.914" width="38.6991" height="47.9802" fill="#D3D9D3"/>
</g>
<mask id="mask23_49_16" style="mask-type:alpha" maskUnits="userSpaceOnUse" x="725" y="126" width="33" height="54">
<rect x="725.686" y="126.479" width="31.3211" height="52.5425" fill="#181E1E"/>
</mask>
<g mask="url(#mask23_49_16)">
<ellipse cx="741.346" cy="163.007" rx="37.5474" ry="32.652" fill="#181E1E"/>
<rect x="725.686" y="141.239" width="31.3211" height="39.4075" fill="#181E1E"/>
</g>
<rect x="723.772" y="144.046" width="34.4042" height="1.67371" fill="#D3D9D3"/>
<rect x="741.811" y="127.681" width="51.3406" height="1.67371" transform="rotate(90 741.811 127.681)" fill="#D3D9D3"/>
<mask id="mask24_49_16" style="mask-type:alpha" maskUnits="userSpaceOnUse" x="785" y="119" width="40" height="64">
<rect x="785.785" y="119.943" width="38.6991" height="62.2114" fill="#D9D9D9"/>
</mask>
<g mask="url(#mask24_49_16)">
<ellipse cx="805.135" cy="164.418" rx="46.392" ry="39.7551" fill="#D3D9D3"/>
<rect x="785.785" y="137.914" width="38.6991" height="47.9802" fill="#D3D9D3"/>
</g>
<mask id="mask25_49_16" style="mask-type:alpha" maskUnits="userSpaceOnUse" x="789" y="126" width="32" height="54">
<rect x="789.474" y="126.479" width="31.3211" height="52.5425" fill="#181E1E"/>
</mask>
<g mask="url(#mask25_49_16)">
<ellipse cx="805.135" cy="163.007" rx="37.5474" ry="32.652" fill="#181E1E"/>
<rect x="789.474" y="141.239" width="31.3211" height="39.4075" fill="#181E1E"/>
</g>
<rect x="787.561" y="144.046" width="34.4042" height="1.67371" fill="#D3D9D3"/>
<rect x="805.6" y="127.681" width="51.3406" height="1.67371" transform="rotate(90 805.6 127.681)" fill="#D3D9D3"/>
<mask id="mask26_49_16" style="mask-type:alpha" maskUnits="userSpaceOnUse" x="20" y="34" width="40" height="63">
<rect x="20.3176" y="34.5254" width="38.6991" height="62.2114" fill="#D9D9D9"/>
</mask>
<g mask="url(#mask26_49_16)">
<ellipse cx="39.6671" cy="79.0002" rx="46.392" ry="39.7551" fill="#D3D9D3"/>
<rect x="20.3176" y="52.4966" width="38.6991" height="47.9802" fill="#D3D9D3"/>
</g>
<mask id="mask27_49_16" style="mask-type:alpha" maskUnits="userSpaceOnUse" x="24" y="41" width="32" height="53">
<rect x="24.0063" y="41.0615" width="31.3211" height="52.5425" fill="#181E1E"/>
</mask>
<g mask="url(#mask27_49_16)">
<ellipse cx="39.667" cy="77.59" rx="37.5474" ry="32.652" fill="#181E1E"/>
<rect x="24.0063" y="55.8218" width="31.3211" height="39.4075" fill="#181E1E"/>
</g>
<rect x="22.093" y="58.6289" width="34.4042" height="1.67371" fill="#D3D9D3"/>
<rect x="40.1321" y="42.2637" width="51.3406" height="1.67371" transform="rotate(90 40.1321 42.2637)" fill="#D3D9D3"/>
<mask id="mask28_49_16" style="mask-type:alpha" maskUnits="userSpaceOnUse" x="84" y="34" width="39" height="63">
<rect x="84.106" y="34.5254" width="38.6991" height="62.2114" fill="#D9D9D9"/>
</mask>
<g mask="url(#mask28_49_16)">
<ellipse cx="103.456" cy="79.0002" rx="46.392" ry="39.7551" fill="#D3D9D3"/>
<rect x="84.106" y="52.4966" width="38.6991" height="47.9802" fill="#D3D9D3"/>
</g>
<mask id="mask29_49_16" style="mask-type:alpha" maskUnits="userSpaceOnUse" x="87" y="41" width="33" height="53">
<rect x="87.7952" y="41.0615" width="31.3211" height="52.5425" fill="#181E1E"/>
</mask>
<g mask="url(#mask29_49_16)">
<ellipse cx="103.456" cy="77.59" rx="37.5474" ry="32.652" fill="#181E1E"/>
<rect x="87.7952" y="55.8218" width="31.3211" height="39.4075" fill="#181E1E"/>
</g>
<rect x="85.8818" y="58.6289" width="34.4042" height="1.67371" fill="#D3D9D3"/>
<rect x="103.921" y="42.2637" width="51.3406" height="1.67371" transform="rotate(90 103.921 42.2637)" fill="#D3D9D3"/>
<mask id="mask30_49_16" style="mask-type:alpha" maskUnits="userSpaceOnUse" x="147" y="34" width="40" height="63">
<rect x="147.896" y="34.5254" width="38.6991" height="62.2114" fill="#D9D9D9"/>
</mask>
<g mask="url(#mask30_49_16)">
<ellipse cx="167.245" cy="79.0002" rx="46.392" ry="39.7551" fill="#D3D9D3"/>
<rect x="147.896" y="52.4966" width="38.6991" height="47.9802" fill="#D3D9D3"/>
</g>
<mask id="mask31_49_16" style="mask-type:alpha" maskUnits="userSpaceOnUse" x="151" y="41" width="32" height="53">
<rect x="151.585" y="41.0615" width="31.3211" height="52.5425" fill="#181E1E"/>
</mask>
<g mask="url(#mask31_49_16)">
<ellipse cx="167.245" cy="77.59" rx="37.5474" ry="32.652" fill="#181E1E"/>
<rect x="151.585" y="55.8218" width="31.3211" height="39.4075" fill="#181E1E"/>
</g>
<rect x="149.671" y="58.6289" width="34.4042" height="1.67371" fill="#D3D9D3"/>
<rect x="167.71" y="42.2637" width="51.3406" height="1.67371" transform="rotate(90 167.71 42.2637)" fill="#D3D9D3"/>
<mask id="mask32_49_16" style="mask-type:alpha" maskUnits="userSpaceOnUse" x="211" y="34" width="40" height="63">
<rect x="211.684" y="34.5254" width="38.6991" height="62.2114" fill="#D9D9D9"/>
</mask>
<g mask="url(#mask32_49_16)">
<ellipse cx="231.034" cy="79.0002" rx="46.392" ry="39.7551" fill="#D3D9D3"/>
<rect x="211.685" y="52.4966" width="38.6991" height="47.9802" fill="#D3D9D3"/>
</g>
<mask id="mask33_49_16" style="mask-type:alpha" maskUnits="userSpaceOnUse" x="215" y="41" width="32" height="53">
<rect x="215.374" y="41.0615" width="31.3211" height="52.5425" fill="#181E1E"/>
</mask>
<g mask="url(#mask33_49_16)">
<ellipse cx="231.034" cy="77.59" rx="37.5474" ry="32.652" fill="#181E1E"/>
<rect x="215.373" y="55.8218" width="31.3211" height="39.4075" fill="#181E1E"/>
</g>
<rect x="213.46" y="58.6289" width="34.4042" height="1.67371" fill="#D3D9D3"/>
<rect x="231.499" y="42.2637" width="51.3406" height="1.67371" transform="rotate(90 231.499 42.2637)" fill="#D3D9D3"/>
<mask id="mask34_49_16" style="mask-type:alpha" maskUnits="userSpaceOnUse" x="275" y="34" width="40" height="63">
<rect x="275.474" y="34.5254" width="38.6991" height="62.2114" fill="#D9D9D9"/>
</mask>
<g mask="url(#mask34_49_16)">
<ellipse cx="294.823" cy="79.0002" rx="46.392" ry="39.7551" fill="#D3D9D3"/>
<rect x="275.474" y="52.4966" width="38.6991" height="47.9802" fill="#D3D9D3"/>
</g>
<mask id="mask35_49_16" style="mask-type:alpha" maskUnits="userSpaceOnUse" x="279" y="41" width="32" height="53">
<rect x="279.163" y="41.0615" width="31.3211" height="52.5425" fill="#181E1E"/>
</mask>
<g mask="url(#mask35_49_16)">
<ellipse cx="294.823" cy="77.59" rx="37.5474" ry="32.652" fill="#181E1E"/>
<rect x="279.163" y="55.8218" width="31.3211" height="39.4075" fill="#181E1E"/>
</g>
<rect x="277.249" y="58.6289" width="34.4042" height="1.67371" fill="#D3D9D3"/>
<rect x="295.288" y="42.2637" width="51.3406" height="1.67371" transform="rotate(90 295.288 42.2637)" fill="#D3D9D3"/>
<mask id="mask36_49_16" style="mask-type:alpha" maskUnits="userSpaceOnUse" x="339" y="34" width="39" height="63">
<rect x="339.262" y="34.5254" width="38.6991" height="62.2114" fill="#D9D9D9"/>
</mask>
<g mask="url(#mask36_49_16)">
<ellipse cx="358.612" cy="79.0002" rx="46.392" ry="39.7551" fill="#D3D9D3"/>
<rect x="339.262" y="52.4966" width="38.6991" height="47.9802" fill="#D3D9D3"/>
</g>
<mask id="mask37_49_16" style="mask-type:alpha" maskUnits="userSpaceOnUse" x="342" y="41" width="33" height="53">
<rect x="342.951" y="41.0615" width="31.3211" height="52.5425" fill="#181E1E"/>
</mask>
<g mask="url(#mask37_49_16)">
<ellipse cx="358.612" cy="77.59" rx="37.5474" ry="32.652" fill="#181E1E"/>
<rect x="342.951" y="55.8218" width="31.3211" height="39.4075" fill="#181E1E"/>
</g>
<rect x="341.038" y="58.6289" width="34.4042" height="1.67371" fill="#D3D9D3"/>
<rect x="359.077" y="42.2637" width="51.3406" height="1.67371" transform="rotate(90 359.077 42.2637)" fill="#D3D9D3"/>
<mask id="mask38_49_16" style="mask-type:alpha" maskUnits="userSpaceOnUse" x="403" y="34" width="39" height="63">
<rect x="403.052" y="34.5254" width="38.6991" height="62.2114" fill="#D9D9D9"/>
</mask>
<g mask="url(#mask38_49_16)">
<ellipse cx="422.401" cy="79.0002" rx="46.392" ry="39.7551" fill="#D3D9D3"/>
<rect x="403.052" y="52.4966" width="38.6991" height="47.9802" fill="#D3D9D3"/>
</g>
<mask id="mask39_49_16" style="mask-type:alpha" maskUnits="userSpaceOnUse" x="406" y="41" width="33" height="53">
<rect x="406.741" y="41.0615" width="31.3211" height="52.5425" fill="#181E1E"/>
</mask>
<g mask="url(#mask39_49_16)">
<ellipse cx="422.401" cy="77.59" rx="37.5474" ry="32.652" fill="#181E1E"/>
<rect x="406.74" y="55.8218" width="31.3211" height="39.4075" fill="#181E1E"/>
</g>
<rect x="404.827" y="58.6289" width="34.4042" height="1.67371" fill="#D3D9D3"/>
<rect x="422.866" y="42.2637" width="51.3406" height="1.67371" transform="rotate(90 422.866 42.2637)" fill="#D3D9D3"/>
<mask id="mask40_49_16" style="mask-type:alpha" maskUnits="userSpaceOnUse" x="466" y="34" width="40" height="63">
<rect x="466.841" y="34.5254" width="38.6991" height="62.2114" fill="#D9D9D9"/>
</mask>
<g mask="url(#mask40_49_16)">
<ellipse cx="486.19" cy="79.0002" rx="46.392" ry="39.7551" fill="#D3D9D3"/>
<rect x="466.841" y="52.4966" width="38.6991" height="47.9802" fill="#D3D9D3"/>
</g>
<mask id="mask41_49_16" style="mask-type:alpha" maskUnits="userSpaceOnUse" x="470" y="41" width="32" height="53">
<rect x="470.53" y="41.0615" width="31.3211" height="52.5425" fill="#181E1E"/>
</mask>
<g mask="url(#mask41_49_16)">
<ellipse cx="486.19" cy="77.59" rx="37.5474" ry="32.652" fill="#181E1E"/>
<rect x="470.53" y="55.8218" width="31.3211" height="39.4075" fill="#181E1E"/>
</g>
<rect x="468.616" y="58.6289" width="34.4042" height="1.67371" fill="#D3D9D3"/>
<rect x="486.655" y="42.2637" width="51.3406" height="1.67371" transform="rotate(90 486.655 42.2637)" fill="#D3D9D3"/>
<mask id="mask42_49_16" style="mask-type:alpha" maskUnits="userSpaceOnUse" x="530" y="34" width="40" height="63">
<rect x="530.629" y="34.5254" width="38.6991" height="62.2114" fill="#D9D9D9"/>
</mask>
<g mask="url(#mask42_49_16)">
<ellipse cx="549.979" cy="79.0002" rx="46.392" ry="39.7551" fill="#D3D9D3"/>
<rect x="530.629" y="52.4966" width="38.6991" height="47.9802" fill="#D3D9D3"/>
</g>
<mask id="mask43_49_16" style="mask-type:alpha" maskUnits="userSpaceOnUse" x="534" y="41" width="32" height="53">
<rect x="534.318" y="41.0615" width="31.3211" height="52.5425" fill="#181E1E"/>
</mask>
<g mask="url(#mask43_49_16)">
<ellipse cx="549.979" cy="77.59" rx="37.5474" ry="32.652" fill="#181E1E"/>
<rect x="534.318" y="55.8218" width="31.3211" height="39.4075" fill="#181E1E"/>
</g>
<rect x="532.405" y="58.6289" width="34.4042" height="1.67371" fill="#D3D9D3"/>
<rect x="550.444" y="42.2637" width="51.3406" height="1.67371" transform="rotate(90 550.444 42.2637)" fill="#D3D9D3"/>
<mask id="mask44_49_16" style="mask-type:alpha" maskUnits="userSpaceOnUse" x="594" y="34" width="40" height="63">
<rect x="594.418" y="34.5254" width="38.6991" height="62.2114" fill="#D9D9D9"/>
</mask>
<g mask="url(#mask44_49_16)">
<ellipse cx="613.768" cy="79.0002" rx="46.392" ry="39.7551" fill="#D3D9D3"/>
<rect x="594.418" y="52.4966" width="38.6991" height="47.9802" fill="#D3D9D3"/>
</g>
<mask id="mask45_49_16" style="mask-type:alpha" maskUnits="userSpaceOnUse" x="598" y="41" width="32" height="53">
<rect x="598.107" y="41.0615" width="31.3211" height="52.5425" fill="#181E1E"/>
</mask>
<g mask="url(#mask45_49_16)">
<ellipse cx="613.768" cy="77.59" rx="37.5474" ry="32.652" fill="#181E1E"/>
<rect x="598.107" y="55.8218" width="31.3211" height="39.4075" fill="#181E1E"/>
</g>
<rect x="596.194" y="58.6289" width="34.4042" height="1.67371" fill="#D3D9D3"/>
<rect x="614.233" y="42.2637" width="51.3406" height="1.67371" transform="rotate(90 614.233 42.2637)" fill="#D3D9D3"/>
<mask id="mask46_49_16" style="mask-type:alpha" maskUnits="userSpaceOnUse" x="658" y="34" width="39" height="63">
<rect x="658.208" y="34.5254" width="38.6991" height="62.2114" fill="#D9D9D9"/>
</mask>
<g mask="url(#mask46_49_16)">
<ellipse cx="677.557" cy="79.0002" rx="46.392" ry="39.7551" fill="#D3D9D3"/>
<rect x="658.208" y="52.4966" width="38.6991" height="47.9802" fill="#D3D9D3"/>
</g>
<mask id="mask47_49_16" style="mask-type:alpha" maskUnits="userSpaceOnUse" x="661" y="41" width="33" height="53">
<rect x="661.896" y="41.0615" width="31.3211" height="52.5425" fill="#181E1E"/>
</mask>
<g mask="url(#mask47_49_16)">
<ellipse cx="677.557" cy="77.59" rx="37.5474" ry="32.652" fill="#181E1E"/>
<rect x="661.896" y="55.8218" width="31.3211" height="39.4075" fill="#181E1E"/>
</g>
<rect x="659.983" y="58.6289" width="34.4042" height="1.67371" fill="#D3D9D3"/>
<rect x="678.022" y="42.2637" width="51.3406" height="1.67371" transform="rotate(90 678.022 42.2637)" fill="#D3D9D3"/>
<mask id="mask48_49_16" style="mask-type:alpha" maskUnits="userSpaceOnUse" x="721" y="34" width="40" height="63">
<rect x="721.997" y="34.5254" width="38.6991" height="62.2114" fill="#D9D9D9"/>
</mask>
<g mask="url(#mask48_49_16)">
<ellipse cx="741.346" cy="79.0002" rx="46.392" ry="39.7551" fill="#D3D9D3"/>
<rect x="721.997" y="52.4966" width="38.6991" height="47.9802" fill="#D3D9D3"/>
</g>
<mask id="mask49_49_16" style="mask-type:alpha" maskUnits="userSpaceOnUse" x="725" y="41" width="33" height="53">
<rect x="725.686" y="41.0615" width="31.3211" height="52.5425" fill="#181E1E"/>
</mask>
<g mask="url(#mask49_49_16)">
<ellipse cx="741.346" cy="77.59" rx="37.5474" ry="32.652" fill="#181E1E"/>
<rect x="725.686" y="55.8218" width="31.3211" height="39.4075" fill="#181E1E"/>
</g>
<rect x="723.772" y="58.6289" width="34.4042" height="1.67371" fill="#D3D9D3"/>
<rect x="741.811" y="42.2637" width="51.3406" height="1.67371" transform="rotate(90 741.811 42.2637)" fill="#D3D9D3"/>
<mask id="mask50_49_16" style="mask-type:alpha" maskUnits="userSpaceOnUse" x="785" y="34" width="40" height="63">
<rect x="785.785" y="34.5254" width="38.6991" height="62.2114" fill="#D9D9D9"/>
</mask>
<g mask="url(#mask50_49_16)">
<ellipse cx="805.135" cy="79.0002" rx="46.392" ry="39.7551" fill="#D3D9D3"/>
<rect x="785.785" y="52.4966" width="38.6991" height="47.9802" fill="#D3D9D3"/>
</g>
<mask id="mask51_49_16" style="mask-type:alpha" maskUnits="userSpaceOnUse" x="789" y="41" width="32" height="53">
<rect x="789.474" y="41.0615" width="31.3211" height="52.5425" fill="#181E1E"/>
</mask>
<g mask="url(#mask51_49_16)">
<ellipse cx="805.135" cy="77.59" rx="37.5474" ry="32.652" fill="#181E1E"/>
<rect x="789.474" y="55.8218" width="31.3211" height="39.4075" fill="#181E1E"/>
</g>
<rect x="787.561" y="58.6289" width="34.4042" height="1.67371" fill="#D3D9D3"/>
<rect x="805.6" y="42.2637" width="51.3406" height="1.67371" transform="rotate(90 805.6 42.2637)" fill="#D3D9D3"/>
<circle cx="90.2274" cy="236.261" r="19.8201" fill="#181E1E"/>
<rect x="70.4072" y="236.26" width="39.6403" height="63.7395" fill="#181E1E"/>
<circle cx="166.873" cy="228.701" r="12.2608" fill="#181E1E"/>
<rect x="154.612" y="228.701" width="24.5215" height="39.4293" fill="#181E1E"/>
<circle cx="295.288" cy="228.701" r="12.2608" fill="#181E1E"/>
<rect x="283.027" y="228.701" width="24.5215" height="39.4293" fill="#181E1E"/>
<circle cx="421.192" cy="228.701" r="12.2608" fill="#181E1E"/>
<rect x="408.932" y="228.701" width="24.5215" height="39.4293" fill="#181E1E"/>
<circle cx="549.979" cy="228.701" r="12.2608" fill="#181E1E"/>
<rect x="537.718" y="228.701" width="24.5215" height="39.4293" fill="#181E1E"/>
<circle cx="678.022" cy="228.701" r="12.2608" fill="#181E1E"/>
<rect x="665.761" y="228.701" width="24.5215" height="39.4293" fill="#181E1E"/>
<circle cx="805.6" cy="228.701" r="12.2608" fill="#181E1E"/>
<rect x="793.339" y="228.701" width="24.5215" height="39.4293" fill="#181E1E"/>
</g>
<defs>
<clipPath id="clip0_49_16">
<rect width="841" height="300" fill="white" transform="translate(0.771484)"/>
</clipPath>
</defs>
</svg>
